<mxfile host="Electron" agent="Mozilla/5.0 (Windows NT 10.0; Win64; x64) AppleWebKit/537.36 (KHTML, like Gecko) draw.io/24.7.5 Chrome/126.0.6478.183 Electron/31.3.0 Safari/537.36" version="24.7.5">
  <diagram name="第 1 页" id="V5JLyogiq0JqLJQTsuTI">
    <mxGraphModel dx="2296" dy="2272" grid="1" gridSize="10" guides="1" tooltips="1" connect="1" arrows="1" fold="1" page="1" pageScale="1" pageWidth="827" pageHeight="1169" math="0" shadow="0">
      <root>
        <mxCell id="0" />
        <mxCell id="1" parent="0" />
        <mxCell id="YEeJorZN1dExoxOqFr3U-1" value="" style="edgeStyle=orthogonalEdgeStyle;rounded=0;orthogonalLoop=1;jettySize=auto;html=1;entryX=0.5;entryY=0;entryDx=0;entryDy=0;" edge="1" parent="1" source="YEeJorZN1dExoxOqFr3U-7" target="YEeJorZN1dExoxOqFr3U-27">
          <mxGeometry relative="1" as="geometry">
            <mxPoint x="342" y="70" as="targetPoint" />
          </mxGeometry>
        </mxCell>
        <mxCell id="YEeJorZN1dExoxOqFr3U-2" style="edgeStyle=orthogonalEdgeStyle;rounded=0;orthogonalLoop=1;jettySize=auto;html=1;exitX=1;exitY=0.5;exitDx=0;exitDy=0;entryX=0;entryY=0.5;entryDx=0;entryDy=0;" edge="1" parent="1" source="YEeJorZN1dExoxOqFr3U-7" target="YEeJorZN1dExoxOqFr3U-22">
          <mxGeometry relative="1" as="geometry" />
        </mxCell>
        <mxCell id="YEeJorZN1dExoxOqFr3U-3" style="edgeStyle=orthogonalEdgeStyle;rounded=0;orthogonalLoop=1;jettySize=auto;html=1;exitX=1;exitY=0.5;exitDx=0;exitDy=0;entryX=0;entryY=0.5;entryDx=0;entryDy=0;" edge="1" parent="1" source="YEeJorZN1dExoxOqFr3U-7" target="YEeJorZN1dExoxOqFr3U-19">
          <mxGeometry relative="1" as="geometry" />
        </mxCell>
        <mxCell id="YEeJorZN1dExoxOqFr3U-5" style="edgeStyle=orthogonalEdgeStyle;rounded=0;orthogonalLoop=1;jettySize=auto;html=1;exitX=1;exitY=0.5;exitDx=0;exitDy=0;entryX=0;entryY=0.5;entryDx=0;entryDy=0;" edge="1" parent="1" source="YEeJorZN1dExoxOqFr3U-7" target="YEeJorZN1dExoxOqFr3U-28">
          <mxGeometry relative="1" as="geometry" />
        </mxCell>
        <mxCell id="YEeJorZN1dExoxOqFr3U-6" style="edgeStyle=orthogonalEdgeStyle;rounded=0;orthogonalLoop=1;jettySize=auto;html=1;exitX=1;exitY=0.5;exitDx=0;exitDy=0;entryX=0;entryY=0.5;entryDx=0;entryDy=0;" edge="1" parent="1" source="YEeJorZN1dExoxOqFr3U-7" target="YEeJorZN1dExoxOqFr3U-30">
          <mxGeometry relative="1" as="geometry" />
        </mxCell>
        <mxCell id="YEeJorZN1dExoxOqFr3U-7" value="&lt;font style=&quot;font-size: 14px;&quot;&gt;Simulation init: seed, num, func&lt;/font&gt;" style="rounded=0;whiteSpace=wrap;html=1;" vertex="1" parent="1">
          <mxGeometry x="282" y="-65" width="120" height="60" as="geometry" />
        </mxCell>
        <mxCell id="YEeJorZN1dExoxOqFr3U-60" style="edgeStyle=orthogonalEdgeStyle;rounded=0;orthogonalLoop=1;jettySize=auto;html=1;exitX=1;exitY=0.5;exitDx=0;exitDy=0;" edge="1" parent="1" source="YEeJorZN1dExoxOqFr3U-10" target="YEeJorZN1dExoxOqFr3U-58">
          <mxGeometry relative="1" as="geometry" />
        </mxCell>
        <mxCell id="YEeJorZN1dExoxOqFr3U-10" value="MPI Init" style="rounded=0;whiteSpace=wrap;html=1;" vertex="1" parent="1">
          <mxGeometry x="445" y="165" width="108" height="30" as="geometry" />
        </mxCell>
        <mxCell id="YEeJorZN1dExoxOqFr3U-74" style="edgeStyle=orthogonalEdgeStyle;rounded=0;orthogonalLoop=1;jettySize=auto;html=1;exitX=0.5;exitY=1;exitDx=0;exitDy=0;entryX=0.5;entryY=0;entryDx=0;entryDy=0;" edge="1" parent="1" source="YEeJorZN1dExoxOqFr3U-13" target="YEeJorZN1dExoxOqFr3U-39">
          <mxGeometry relative="1" as="geometry" />
        </mxCell>
        <mxCell id="YEeJorZN1dExoxOqFr3U-13" value="Compute Process" style="rounded=0;whiteSpace=wrap;html=1;" vertex="1" parent="1">
          <mxGeometry x="95" y="320" width="85" height="80" as="geometry" />
        </mxCell>
        <mxCell id="YEeJorZN1dExoxOqFr3U-14" style="edgeStyle=orthogonalEdgeStyle;rounded=0;orthogonalLoop=1;jettySize=auto;html=1;exitX=0.5;exitY=1;exitDx=0;exitDy=0;entryX=0.5;entryY=0;entryDx=0;entryDy=0;" edge="1" parent="1" source="YEeJorZN1dExoxOqFr3U-17" target="YEeJorZN1dExoxOqFr3U-13">
          <mxGeometry relative="1" as="geometry" />
        </mxCell>
        <mxCell id="YEeJorZN1dExoxOqFr3U-15" style="edgeStyle=orthogonalEdgeStyle;rounded=0;orthogonalLoop=1;jettySize=auto;html=1;exitX=0.5;exitY=1;exitDx=0;exitDy=0;entryX=0.5;entryY=0;entryDx=0;entryDy=0;" edge="1" parent="1" source="YEeJorZN1dExoxOqFr3U-17" target="YEeJorZN1dExoxOqFr3U-34">
          <mxGeometry relative="1" as="geometry" />
        </mxCell>
        <mxCell id="YEeJorZN1dExoxOqFr3U-16" style="edgeStyle=orthogonalEdgeStyle;rounded=0;orthogonalLoop=1;jettySize=auto;html=1;exitX=0.5;exitY=1;exitDx=0;exitDy=0;entryX=0.5;entryY=0;entryDx=0;entryDy=0;" edge="1" parent="1" source="YEeJorZN1dExoxOqFr3U-17" target="YEeJorZN1dExoxOqFr3U-36">
          <mxGeometry relative="1" as="geometry" />
        </mxCell>
        <mxCell id="YEeJorZN1dExoxOqFr3U-17" value="Sent Works to different Working Process" style="rounded=0;whiteSpace=wrap;html=1;" vertex="1" parent="1">
          <mxGeometry x="293" y="210" width="98" height="60" as="geometry" />
        </mxCell>
        <mxCell id="YEeJorZN1dExoxOqFr3U-61" style="edgeStyle=orthogonalEdgeStyle;rounded=0;orthogonalLoop=1;jettySize=auto;html=1;exitX=1;exitY=0.5;exitDx=0;exitDy=0;" edge="1" parent="1" source="YEeJorZN1dExoxOqFr3U-18" target="YEeJorZN1dExoxOqFr3U-7">
          <mxGeometry relative="1" as="geometry" />
        </mxCell>
        <mxCell id="YEeJorZN1dExoxOqFr3U-18" value="&lt;h1 style=&quot;margin-top: 0px;&quot;&gt;gsd file&lt;/h1&gt;&lt;p&gt;A running file that the software needed&lt;/p&gt;" style="text;html=1;whiteSpace=wrap;overflow=hidden;rounded=0;" vertex="1" parent="1">
          <mxGeometry x="55" y="-80" width="130" height="90" as="geometry" />
        </mxCell>
        <mxCell id="YEeJorZN1dExoxOqFr3U-19" value="seed" style="rounded=0;whiteSpace=wrap;html=1;" vertex="1" parent="1">
          <mxGeometry x="470" width="60" height="30" as="geometry" />
        </mxCell>
        <mxCell id="YEeJorZN1dExoxOqFr3U-20" style="edgeStyle=orthogonalEdgeStyle;rounded=0;orthogonalLoop=1;jettySize=auto;html=1;exitX=1;exitY=0.5;exitDx=0;exitDy=0;entryX=0;entryY=0.5;entryDx=0;entryDy=0;" edge="1" parent="1" source="YEeJorZN1dExoxOqFr3U-22" target="YEeJorZN1dExoxOqFr3U-23">
          <mxGeometry relative="1" as="geometry" />
        </mxCell>
        <mxCell id="YEeJorZN1dExoxOqFr3U-21" style="edgeStyle=orthogonalEdgeStyle;rounded=0;orthogonalLoop=1;jettySize=auto;html=1;exitX=1;exitY=0.5;exitDx=0;exitDy=0;entryX=0;entryY=0.5;entryDx=0;entryDy=0;" edge="1" parent="1" source="YEeJorZN1dExoxOqFr3U-22" target="YEeJorZN1dExoxOqFr3U-24">
          <mxGeometry relative="1" as="geometry" />
        </mxCell>
        <mxCell id="YEeJorZN1dExoxOqFr3U-22" value="func" style="rounded=0;whiteSpace=wrap;html=1;" vertex="1" parent="1">
          <mxGeometry x="470" y="-50" width="60" height="30" as="geometry" />
        </mxCell>
        <mxCell id="YEeJorZN1dExoxOqFr3U-23" value="parameter" style="rounded=0;whiteSpace=wrap;html=1;" vertex="1" parent="1">
          <mxGeometry x="590" y="-50" width="60" height="30" as="geometry" />
        </mxCell>
        <mxCell id="YEeJorZN1dExoxOqFr3U-67" style="edgeStyle=orthogonalEdgeStyle;rounded=0;orthogonalLoop=1;jettySize=auto;html=1;exitX=1;exitY=0.5;exitDx=0;exitDy=0;entryX=0;entryY=0.5;entryDx=0;entryDy=0;" edge="1" parent="1" source="YEeJorZN1dExoxOqFr3U-24" target="YEeJorZN1dExoxOqFr3U-66">
          <mxGeometry relative="1" as="geometry" />
        </mxCell>
        <mxCell id="YEeJorZN1dExoxOqFr3U-24" value="condition" style="rounded=0;whiteSpace=wrap;html=1;" vertex="1" parent="1">
          <mxGeometry x="590" y="-10" width="60" height="30" as="geometry" />
        </mxCell>
        <mxCell id="YEeJorZN1dExoxOqFr3U-26" style="edgeStyle=orthogonalEdgeStyle;rounded=0;orthogonalLoop=1;jettySize=auto;html=1;exitX=1;exitY=0.5;exitDx=0;exitDy=0;entryX=0;entryY=0.5;entryDx=0;entryDy=0;" edge="1" parent="1" source="YEeJorZN1dExoxOqFr3U-27" target="YEeJorZN1dExoxOqFr3U-43">
          <mxGeometry relative="1" as="geometry" />
        </mxCell>
        <mxCell id="YEeJorZN1dExoxOqFr3U-57" style="edgeStyle=orthogonalEdgeStyle;rounded=0;orthogonalLoop=1;jettySize=auto;html=1;exitX=1;exitY=0.5;exitDx=0;exitDy=0;entryX=0;entryY=0.5;entryDx=0;entryDy=0;" edge="1" parent="1" source="YEeJorZN1dExoxOqFr3U-27" target="YEeJorZN1dExoxOqFr3U-10">
          <mxGeometry relative="1" as="geometry" />
        </mxCell>
        <mxCell id="YEeJorZN1dExoxOqFr3U-70" style="edgeStyle=orthogonalEdgeStyle;rounded=0;orthogonalLoop=1;jettySize=auto;html=1;exitX=0.5;exitY=1;exitDx=0;exitDy=0;entryX=0.5;entryY=0;entryDx=0;entryDy=0;" edge="1" parent="1" source="YEeJorZN1dExoxOqFr3U-27" target="YEeJorZN1dExoxOqFr3U-17">
          <mxGeometry relative="1" as="geometry" />
        </mxCell>
        <mxCell id="YEeJorZN1dExoxOqFr3U-27" value="run" style="shape=process;whiteSpace=wrap;html=1;backgroundOutline=1;" vertex="1" parent="1">
          <mxGeometry x="300.5" y="119" width="83" height="45" as="geometry" />
        </mxCell>
        <mxCell id="YEeJorZN1dExoxOqFr3U-28" value="dt" style="rounded=0;whiteSpace=wrap;html=1;" vertex="1" parent="1">
          <mxGeometry x="470" y="50" width="60" height="30" as="geometry" />
        </mxCell>
        <mxCell id="YEeJorZN1dExoxOqFr3U-29" style="edgeStyle=orthogonalEdgeStyle;rounded=0;orthogonalLoop=1;jettySize=auto;html=1;exitX=1;exitY=0.5;exitDx=0;exitDy=0;" edge="1" parent="1" source="YEeJorZN1dExoxOqFr3U-30" target="YEeJorZN1dExoxOqFr3U-37">
          <mxGeometry relative="1" as="geometry" />
        </mxCell>
        <mxCell id="YEeJorZN1dExoxOqFr3U-65" style="edgeStyle=orthogonalEdgeStyle;rounded=0;orthogonalLoop=1;jettySize=auto;html=1;exitX=1;exitY=0.5;exitDx=0;exitDy=0;entryX=0;entryY=0.5;entryDx=0;entryDy=0;" edge="1" parent="1" source="YEeJorZN1dExoxOqFr3U-30" target="YEeJorZN1dExoxOqFr3U-63">
          <mxGeometry relative="1" as="geometry" />
        </mxCell>
        <mxCell id="YEeJorZN1dExoxOqFr3U-30" value="CPU/GPU" style="rounded=0;whiteSpace=wrap;html=1;" vertex="1" parent="1">
          <mxGeometry x="470" y="-100" width="60" height="30" as="geometry" />
        </mxCell>
        <mxCell id="YEeJorZN1dExoxOqFr3U-75" style="edgeStyle=orthogonalEdgeStyle;rounded=0;orthogonalLoop=1;jettySize=auto;html=1;exitX=0.5;exitY=1;exitDx=0;exitDy=0;entryX=0.5;entryY=0;entryDx=0;entryDy=0;" edge="1" parent="1" source="YEeJorZN1dExoxOqFr3U-34" target="YEeJorZN1dExoxOqFr3U-39">
          <mxGeometry relative="1" as="geometry" />
        </mxCell>
        <mxCell id="YEeJorZN1dExoxOqFr3U-34" value="Compute Process" style="rounded=0;whiteSpace=wrap;html=1;" vertex="1" parent="1">
          <mxGeometry x="297" y="320" width="90" height="80" as="geometry" />
        </mxCell>
        <mxCell id="YEeJorZN1dExoxOqFr3U-76" style="edgeStyle=orthogonalEdgeStyle;rounded=0;orthogonalLoop=1;jettySize=auto;html=1;exitX=0.5;exitY=1;exitDx=0;exitDy=0;entryX=0.5;entryY=0;entryDx=0;entryDy=0;" edge="1" parent="1" source="YEeJorZN1dExoxOqFr3U-36" target="YEeJorZN1dExoxOqFr3U-39">
          <mxGeometry relative="1" as="geometry" />
        </mxCell>
        <mxCell id="YEeJorZN1dExoxOqFr3U-36" value="Compute Process" style="rounded=0;whiteSpace=wrap;html=1;" vertex="1" parent="1">
          <mxGeometry x="500" y="320" width="90" height="80" as="geometry" />
        </mxCell>
        <mxCell id="YEeJorZN1dExoxOqFr3U-37" value="MPI" style="rounded=0;whiteSpace=wrap;html=1;" vertex="1" parent="1">
          <mxGeometry x="590" y="-100" width="60" height="30" as="geometry" />
        </mxCell>
        <mxCell id="YEeJorZN1dExoxOqFr3U-38" style="edgeStyle=orthogonalEdgeStyle;rounded=0;orthogonalLoop=1;jettySize=auto;html=1;exitX=0.5;exitY=1;exitDx=0;exitDy=0;entryX=0.5;entryY=0;entryDx=0;entryDy=0;" edge="1" parent="1" source="YEeJorZN1dExoxOqFr3U-39" target="YEeJorZN1dExoxOqFr3U-51">
          <mxGeometry relative="1" as="geometry">
            <mxPoint x="342" y="721" as="targetPoint" />
          </mxGeometry>
        </mxCell>
        <mxCell id="YEeJorZN1dExoxOqFr3U-39" value="&lt;font style=&quot;font-size: 15px;&quot;&gt;Sum Result&lt;/font&gt;" style="rounded=0;whiteSpace=wrap;html=1;" vertex="1" parent="1">
          <mxGeometry x="282" y="581" width="120" height="60" as="geometry" />
        </mxCell>
        <mxCell id="YEeJorZN1dExoxOqFr3U-40" value="divide particles" style="text;html=1;align=center;verticalAlign=middle;resizable=0;points=[];autosize=1;strokeColor=none;fillColor=none;" vertex="1" parent="1">
          <mxGeometry x="525" y="280" width="100" height="30" as="geometry" />
        </mxCell>
        <mxCell id="YEeJorZN1dExoxOqFr3U-41" style="edgeStyle=orthogonalEdgeStyle;rounded=0;orthogonalLoop=1;jettySize=auto;html=1;exitX=1;exitY=0.5;exitDx=0;exitDy=0;entryX=0;entryY=0.5;entryDx=0;entryDy=0;" edge="1" parent="1" source="YEeJorZN1dExoxOqFr3U-43" target="YEeJorZN1dExoxOqFr3U-46">
          <mxGeometry relative="1" as="geometry" />
        </mxCell>
        <mxCell id="YEeJorZN1dExoxOqFr3U-43" value="domain decomposition" style="rounded=0;whiteSpace=wrap;html=1;" vertex="1" parent="1">
          <mxGeometry x="445" y="110" width="130" height="30" as="geometry" />
        </mxCell>
        <mxCell id="YEeJorZN1dExoxOqFr3U-45" style="edgeStyle=orthogonalEdgeStyle;rounded=0;orthogonalLoop=1;jettySize=auto;html=1;exitX=1;exitY=0.5;exitDx=0;exitDy=0;entryX=0;entryY=0.5;entryDx=0;entryDy=0;" edge="1" parent="1" source="YEeJorZN1dExoxOqFr3U-46" target="YEeJorZN1dExoxOqFr3U-48">
          <mxGeometry relative="1" as="geometry" />
        </mxCell>
        <mxCell id="YEeJorZN1dExoxOqFr3U-46" value="Space decomposition" style="rounded=0;whiteSpace=wrap;html=1;" vertex="1" parent="1">
          <mxGeometry x="625" y="108" width="100" height="33" as="geometry" />
        </mxCell>
        <mxCell id="YEeJorZN1dExoxOqFr3U-59" style="edgeStyle=orthogonalEdgeStyle;rounded=0;orthogonalLoop=1;jettySize=auto;html=1;exitX=0.5;exitY=1;exitDx=0;exitDy=0;entryX=0.5;entryY=0;entryDx=0;entryDy=0;" edge="1" parent="1" source="YEeJorZN1dExoxOqFr3U-48" target="YEeJorZN1dExoxOqFr3U-58">
          <mxGeometry relative="1" as="geometry" />
        </mxCell>
        <mxCell id="YEeJorZN1dExoxOqFr3U-48" value="3D decomposition" style="rounded=0;whiteSpace=wrap;html=1;" vertex="1" parent="1">
          <mxGeometry x="783.5" y="50" width="93" height="42" as="geometry" />
        </mxCell>
        <mxCell id="YEeJorZN1dExoxOqFr3U-50" style="edgeStyle=orthogonalEdgeStyle;rounded=0;orthogonalLoop=1;jettySize=auto;html=1;exitX=0.5;exitY=1;exitDx=0;exitDy=0;entryX=0.5;entryY=0;entryDx=0;entryDy=0;" edge="1" parent="1" source="YEeJorZN1dExoxOqFr3U-51" target="YEeJorZN1dExoxOqFr3U-52">
          <mxGeometry relative="1" as="geometry" />
        </mxCell>
        <mxCell id="YEeJorZN1dExoxOqFr3U-51" value="step ?" style="rhombus;whiteSpace=wrap;html=1;" vertex="1" parent="1">
          <mxGeometry x="302" y="731" width="80" height="60" as="geometry" />
        </mxCell>
        <mxCell id="YEeJorZN1dExoxOqFr3U-52" value="Output Final Result" style="rounded=0;whiteSpace=wrap;html=1;" vertex="1" parent="1">
          <mxGeometry x="282" y="841" width="120" height="60" as="geometry" />
        </mxCell>
        <mxCell id="YEeJorZN1dExoxOqFr3U-53" value="result" style="shape=note;whiteSpace=wrap;html=1;backgroundOutline=1;darkOpacity=0.05;size=15;" vertex="1" parent="1">
          <mxGeometry x="475" y="581" width="60" height="60" as="geometry" />
        </mxCell>
        <mxCell id="YEeJorZN1dExoxOqFr3U-54" style="edgeStyle=orthogonalEdgeStyle;rounded=0;orthogonalLoop=1;jettySize=auto;html=1;exitX=1;exitY=0.5;exitDx=0;exitDy=0;entryX=0;entryY=0.5;entryDx=0;entryDy=0;entryPerimeter=0;" edge="1" parent="1" source="YEeJorZN1dExoxOqFr3U-39" target="YEeJorZN1dExoxOqFr3U-53">
          <mxGeometry relative="1" as="geometry" />
        </mxCell>
        <mxCell id="YEeJorZN1dExoxOqFr3U-55" value="x,y,z&lt;div&gt;buffer&lt;/div&gt;" style="text;html=1;align=center;verticalAlign=middle;resizable=0;points=[];autosize=1;strokeColor=none;fillColor=none;" vertex="1" parent="1">
          <mxGeometry x="485" y="854" width="50" height="40" as="geometry" />
        </mxCell>
        <mxCell id="YEeJorZN1dExoxOqFr3U-58" value="Apply each domain to a MPI rank process" style="rounded=0;whiteSpace=wrap;html=1;" vertex="1" parent="1">
          <mxGeometry x="750" y="160" width="160" height="40" as="geometry" />
        </mxCell>
        <mxCell id="YEeJorZN1dExoxOqFr3U-62" value="load" style="text;html=1;align=center;verticalAlign=middle;whiteSpace=wrap;rounded=0;" vertex="1" parent="1">
          <mxGeometry x="200" y="-65" width="60" height="30" as="geometry" />
        </mxCell>
        <mxCell id="YEeJorZN1dExoxOqFr3U-63" value="HIP for GPU" style="rounded=0;whiteSpace=wrap;html=1;" vertex="1" parent="1">
          <mxGeometry x="590" y="-140" width="60" height="30" as="geometry" />
        </mxCell>
        <mxCell id="YEeJorZN1dExoxOqFr3U-66" value="T, P, etc" style="rounded=0;whiteSpace=wrap;html=1;" vertex="1" parent="1">
          <mxGeometry x="680" y="-10" width="60" height="30" as="geometry" />
        </mxCell>
        <mxCell id="YEeJorZN1dExoxOqFr3U-71" value="&lt;font style=&quot;font-size: 25px;&quot;&gt;Simulation on each Process&lt;/font&gt;" style="text;html=1;align=center;verticalAlign=middle;whiteSpace=wrap;rounded=0;" vertex="1" parent="1">
          <mxGeometry x="-230" y="345" width="180" height="30" as="geometry" />
        </mxCell>
        <mxCell id="YEeJorZN1dExoxOqFr3U-72" value="&lt;font style=&quot;font-size: 30px;&quot;&gt;initialization&lt;/font&gt;" style="text;html=1;align=center;verticalAlign=middle;whiteSpace=wrap;rounded=0;" vertex="1" parent="1">
          <mxGeometry x="-240" y="-40" width="180" height="30" as="geometry" />
        </mxCell>
        <mxCell id="YEeJorZN1dExoxOqFr3U-73" value="&lt;font style=&quot;font-size: 25px;&quot;&gt;Work Decomposition&lt;/font&gt;" style="text;html=1;align=center;verticalAlign=middle;whiteSpace=wrap;rounded=0;" vertex="1" parent="1">
          <mxGeometry x="-230" y="136.5" width="180" height="30" as="geometry" />
        </mxCell>
        <mxCell id="YEeJorZN1dExoxOqFr3U-77" value="&lt;font style=&quot;font-size: 15px;&quot;&gt;&lt;b&gt;MPI All_Reduce&lt;/b&gt;&lt;/font&gt;" style="text;html=1;align=center;verticalAlign=middle;whiteSpace=wrap;rounded=0;" vertex="1" parent="1">
          <mxGeometry x="360" y="510" width="60" height="30" as="geometry" />
        </mxCell>
        <mxCell id="YEeJorZN1dExoxOqFr3U-79" value="&lt;span style=&quot;font-size: 25px;&quot;&gt;Summary in&amp;nbsp;&lt;/span&gt;&lt;div&gt;&lt;span style=&quot;font-size: 25px;&quot;&gt;total Space&lt;/span&gt;&lt;/div&gt;" style="text;html=1;align=center;verticalAlign=middle;whiteSpace=wrap;rounded=0;" vertex="1" parent="1">
          <mxGeometry x="-245" y="581" width="210" height="56" as="geometry" />
        </mxCell>
        <mxCell id="YEeJorZN1dExoxOqFr3U-80" value="" style="shape=image;verticalLabelPosition=bottom;labelBackgroundColor=default;verticalAlign=top;aspect=fixed;imageAspect=0;image=data:image/png,iVBORw0KGgoAAAANSUhEUgAAAQQAAAEzCAIAAABYFepIAAAgAElEQVR4Ae2dCVxU5frHZ2AYVgFlQlwQNxYzhSvmvdZNFC0LTc3tlpamtuB29bbcq6D/vIheLM1QSCu9uaVpV8PcKpcwyXJBTQQFUVFZNAFZZ593/t5OnTvMzDlzzpn3LMM8fD76OfPu7+95vuc571llZvgDBUCBXxWQgQ6gAChAKAAwgCeAAr8pADCAK4ACAAP4ACjQUgGIDC31gF9urADA4MbGh6m3VABgaKkH/HJjBQAGNzY+TL2lAgBDSz3glxsrADC4sfFh6i0VABha6gG/3FgBgMGNjQ9Tb6kAwNBSD/jlxgoADG5sfJh6SwUAhpZ6wC83VgBgcGPjw9RbKgAwtNQDfrmxAgCDGxsfpt5SAYChpR60vxBCpl//LDdoa0CmKykAMNixFrL4MxgMdXV1FRUVV69evXTpUn5+/rFjxw4ePHj8+PH8/PzCwsJr165VVlY2NDQYjUainp0WIckVFAAY7FgJIWQ0GsvLy0+cOPHpp5+++eabSUlJMTExQUFBspZ/ISEhffv2HT16dEpKyrZt23766ad79+7ZaRGSXEEBgOE3K5HBQKfTnT9/fvXq1ZMmTYqJiVEqlS39n/KXr6/vH/7whxkzZmzcuLG0tNRkMiGEXMEHYIy/KQAw/A8Gg8Fw6dKl1NTUgQMHBgQEUHq9o4yQkJBhw4atXLny1q1b4GgupADA8F9jIYSam5vXrVsXFxfn7+/vyNsd58vl8qCgoMTExH379mk0GggRLoEEwPBfMzU0NIwZM0ahUDh2czYl5HK5n5/fggULdDqdS3iDmw/S3WHQarV5eXldu3Zl4+SsyyYmJl67ds1oNLq5t0l8+u4LA0KooaFh+/bt4eHhrL2bfYXY2NgTJ05otVqpHTIhhAwGw40bN47//nflyhUsg0QIVVZW/t7q8YKCgubmZiwt8wSV+8LQ0NCwceNGvmMCSY2Hh0f//v0PHDig1+t5siW3ZhFC169fX7BgQbvf/5KTk2/dunXb6b9bt26tW7fu91bbjRo1Ki8vT6vVchunALXcEQaEkEaj+eKLL6Kjo0lnFWDD09PzscceO378OHF5TgDrMulCr9fPnTs3KiqKVCAyMnIUpr9HH32UbDY0NHTo0KFFRUVMRiVKGXeEwWQynTp1qm/fvnK5nDSVMBsKhSIpKam4uFg6Rws6nS4+Pl6Y6ctksh9++EEUR2fSqdvBgBBqamoaNmyY8CQQDqdQKN54442GhgaJ8AAwkJy4HQxGo3Hp0qWC7QjtduTl5XXo0CGAgfRCiWy4HQznzp3DclnNrpczT+zVq1d1dbUUnAAiA2kFN4KBOEAaPXo0c5fltWRqaqoU7l8CGNwUhq+++io4OJhXF2feeFhY2OXLl0U/WAIY3BGGpqam8ePHe3p6MvdXXkt6enqmpKQADKQvir7hRodJx48ftzybzqujM2y8X79+lZWV4jqBwWBYunRp//79iTGrVKrXX399Fr4/8mJOly5dJk+efO3aNXHnS9O7W8BAPKuQnp4uhaWzJSdhYWE7d+6kMY8AWcRtKYsXLyYG1q9fP+I2W/IBDyc3pkyZQrT8zDPPlJSUiB4JaSR1Fxju3r07YcIES0eUwrZSqZw7d67oN/A1Njb+3//9nyUMNB7DNmvq1KmWMLCtLmR5d4Hhp59+srw1QAokEGMYPnx4RUWFkCa37QtgIDRxFxi++OKLDh06SIcBciRxcXE//PCDuAcPljA88sgjGo3GFhjOKRAZOEvHS0Wj0ZiZmenl5UW6oHQ2wsPDd+7cKR0YunTpolarMZphxIgRhNrEmgFjy9ibcovI0NTUlJKSIh0ALEfSpk2brKws6cDQoUMHvDAkJCQADNi55d5gTU3NnDlzLF1QUttpaWnc54ajpuVhklwub25uxtHqb23ExMQADBj1dLap8vLySZMmSQoAy8GkpqYaDAZnJ+lEfUsYZDJZZWUllkhFvHfwoYceAhicMA7uqhKHYf78+Y2NjbgnzaI9KxhwLegRQo2NjST2sGZgYRL+ikochjfffBPvkQlbJa1g2Lx5M67IUFBQADCwNQe/5e/cuTNt2jTSKlLbWLRokaQOk/7xj3/ggmHPnj2k2hAZ+PVyhq3X1tbOmzePtIqkNry8vDIyMrA4H0M1bItZRYYnn3wSy3gQQpbPUQEMtsqLkKLRaNLS0iTFADmY4ODg9evXY3E+zspawdC2bVssr/BACI0aNYqcKcDA2UA4KyKEPvroIx8fH9Iw0tno1q1bTk6OpGCQyWRnzpxx3gDV1dU9evQgpQYYnJcUQwsIoQMHDlgahrSQ6BsDBgzIz8+XGgypqanO6/7VV1+FhoaSCgMMzkuKoQWEUEFBweDBg0nDSGRDLpePHTu2trZWajDExsbW1dVxHhVCSKfTzZs3z9vbm5QaYMDgys43gRCqr69/5ZVXpPOYG+EiD56vWLJkifMTdLIFqzWDTCYLDg7etWuXMzBcuHDB6jZhgMFJM+GpTjyesn79epVKRe6opLARERHx3Xff4ZmkE63YwuDp6Tl69Oi7d+8S0rFtW6PRLFu2rE2bNpYiAwxsZeSxfFFRUWxsrKV5RN8eMmRIU1MTj3Nm1rQtDDKZLCQkJDMzU6fTcYgPeXl5tlIDDMysIUgphNCsWbOkcyO3l5fXJ598wsHVsKtlFwaZTBYVFXXw4EHmb4YlwsiNGzeefvpp2xcWAgzYDce9QYTQ6dOnw8LCRA8IxACioqIk8pJJKhhkMlnPnj23b99+586dhoaG+7R/9fX1tbW1p0+fpjpRATBw912eas6ePVsKMHh7e2/bto2nObJtlgYGmUzm7e2dlJT0t7/9bTLt36xZs1566SXbD6KSagMMbO3Ce/mysjLyDnvSTsJvjB8/XjrftqKHAZc4AAPvzs22A4TQ7t27AwMDcdmYQzvR0dFnz56VwmqBUA9gIHRwi8c+LYEhPuyZkpJiu8Lj4NYcqgQFBW3YsIHbWRrLieDaJt6bRL4qhsOMGFYhIoN0dgG2ArodDMSHbsvKyiZOnMjQihiLKRSKv//97zU1NdLxCeJ9zMuXL8c4TbtNPfvss6WlpdKZOMDwPwXOnTuXkJDg4eFh13J8JHp6ej7//PPl5eX/G4QEtohbJz788EM+pmzZ5gsvvIDrgVKeZHPHyEBIiRDKy8sbNGgQ9s8/W3oAua1UKseMGYPrQ5oYvYG4OLB7925e7+qVy+Xz5s1Tq9UQGTDaDnNTJ06cGDFiBN/rB19f32nTpl29ehXz6PE1d/z48cjISBJd7BsBAQHvvfcevvHy0pL7RgZCToRQUVHRnDlz+Du/1Llz57S0NOI+H15siKPR0tLSZ599FjsDZIM9e/Y8ePAgjpHy2Ia7w0BIW11d/e9//9v2dhrSltw2vLy8hg0blpOTI4UbkOidSK1WL168WKlUcpupw1rDhg0T/eX79AqYzWaA4b8SEYvIgoKC+fPnt23b1qFpmRQIDw/PyMi4fv26wWCQ8oEy4SLE8088HSkRd6qL/rJxgMGhAr8VINaRDx7bPXfu3MSJE51ZVSuVyrfffps4c0I0y3QQopZraGiYMGECH8uniIiIa9euSX+PAJHBjgMihK5cufLOO+/079+/Y8eOQUFB9Pe6ent7t23bNjw8PDExcfXq1b/88ov0DW9n2mbz7t27O3XqxCTusSrz1ltv2e1OaokAgx2LkFGiubn5hx9+WLt2bXJy8ogRIxISEv74xz/+4fe/gQMHDhkyZPTo0W+88cbGjRsvXrxo+c0bO+1KPqmxsXHSpEl4g0P37t1v3rwp+an/d4AAA1MzNTc337p1q7Cw8MyZM2d//bty5UplZSWWt6owHQTP5RBCZ86c6dy5M6sdP01hPz+/7du3u0qcBBhY+BcZMYg6Vj9ZNCTVosSrgtevX+/MksmSjeTkZK1WCzBI1eAwLkcKNDU1zZw509KnuW0nJCRcvnzZUW8SyofIICFjSGQoCKGKioonnniCGwNErYiIiK+//lrcd8iy1RNgYKuYW5Q3mUwnT558+OGHuS2mVSpVVlYWcTrBhfQCGFzIWMINFSGk1Wp37doVGRnJlofg4ODU1NT79++7ylKBlLX1w0Auc4kNcuZS2LAcmxTGQ46BGFhjY+PHH3/crVs35sdLfn5+b7755p07dySoNjk7qo3WD4PJZHpwbbWwsDA3N3fHjh1ZWVlrJfP3n//8p6CgQLKHE8SndzZu3Mjwq8FKpTIlJUXityRSkdBqrzOQe9yKiorly5cPHz48Pj4+JiamU6dO7dq1ayuNv3bt2nXp0iU+Pj45Ofn06dN6vV5qxxWEjM3NzTk5OQ6vTBM3aRPvjZXaRGgAsMxqnZEBIWQwGLZu3dq9e3d/f3+2R73MjwqwlFQqlREREZ9++qnJZLK0jUS2EUJ6vX7FihX0k504ceK9e/dcFANC6tYGA3HZqK6ubsGCBQEBAfT2k1Suh4fH5s2bJXtr57p16+jlevnll8X9TKPz+45WBQNBwvXr15OTk/38/OiNJ8FcT0/PrVu3SufFGZbuBTBYquEC2yaT6cqVK9OnT7f8LIAEnZ5mSJ07d/7uu+8keLABMLgAAMQQiaXe7du3x48fL7WPMNC4vm2WQqEYN25ceXm51E5NAgyuBENlZaWrk0CwERIS8sEHH0jt/jaAwQVgIPag9+/fnzBhAq57LW132AKn9OvX78SJE5I6WAIYXAMGjUYze/Zs110n2JIml8unTJkiqSfoAQYXgEGr1a5evTokJMTWpVw6RalUfvjhhxqNRiI2ABgkYgj7wyBeaZGTkyOFV8zzAV6HDh0OHz4skZU0wGDfCyWSajKZzp8/P2TIED4cUSJtxsXFFRYWSmHxADBIxO3tDAMhVFtbO23atFazaKbCLykpqaysTPT4ADDY8UKJJCGEsrKyHrydisqHWk26QqGYPn16dXW1uPEBYJCI57cYBrGPvHTpEn9vR5UaSG3atElNTSXfQ9NCDqF+AAxCKc2mH+LjGlZfn5ea+2Ifj0qlys7OFvHJB4CBjZMKVVar1aalpbX6pYItTt27d9+xY4dWqxVK6Rb9AAwt5BD9B3GAlJub27NnT1tfcYeUmJiYvXv3irJ4ABhE9/8WA0AIVVVVTZkyhb83p0ufqN69e+fk5LTQRZAfAIMgMjPuxGg0bt68meHzuNJ3a84j7Nat286dOwWODwADYz8VpGBJScnIkSMl/gwnZxdnVZHgQRDVf+sEYBBSbbq+iDsvNmzY4NLPKrByd4eFO3To8OmnnxqNRpPJJECUABjoHFTIPIRQaWnpn/70J4cu4lYFOnfu/PHHH9fX1wtwfRpgENLh6foymUzZ2dlwgGSLemho6IoVKwT4PArAQOegguUhhO7evfvwww/bugKkyGSygICAOXPmEN+J4u94CWAQzOHpOkIIOXxpj5tToVAokpKScnNzAQY6T3KU5wKviqmsrAwNDXVzd3c4fQ8Pj759+27evJmnh6chMjhCSZD8f/7znw5dAQoQCoSEhKSlpdXW1mK3DMCAXVJ2DRJfzXDbmy+4ES6XyydMmHD58mW8L28FGNj5LvbSJpPpgw8+aNOmDTe3cOdakZGRO3furKqqwnXWFWDA7t7sGqyqqho+fDicUeVGtbe396uvvvr99983Nzez091eaYDBniqCpBH7s88//zw8PJybK0AtmUymUChiY2P/9a9/lZWVOXmhGmAQxPHtdYIQun///syZM93wuQXsGAcHBw8dOnTnzp3OfLIaYLDnp4KkIYROnjwZHx+P3TPcs0EPD4/g4OARI0acPXuWiLpsr0gADII4vr1OjEbjunXrvLy8uPmul5eX697Sp1Ao+Hufvre39+zZs0tKSohzTcyX1wCDPT8VJK28vHzixIncSPDx8UlMTHTdE7JxcXFpaWnR0dEeHh7cFHBYq2PHjikpKWfOnKmpqWEYIgAGQRzfphOTyZSXl9exY0eHRrVbIDY2Nj09vXfv3nZzpZ84YMCAoqKiPXv29O/fnz8eZDJZRETE3LlzDxw4UFZWZjAY6KMEwGDjp4IkaDSa9957j5vXKpXK5OTkffv2uTQMJSUlRqPx6NGjTz31FDcdmNcKDQ0dP3786tWrT5061dTURGVhgIFKGX7Ta2tr//znPzM3p2XJTp067d+//9ixYy4Nw9WrV4n9dGFh4fTp0wW40hIYGBgfHz916tRNmzaRn0qxPIICGPh1eqrW8/PzOT/yn5CQ0NjY2ApgIMWpqqpasmSJMO8OVCgUKpUqOjr6xRdf3LFjR0VFBTkMgIGUQtCNhQsXWu7smW8rFIrs7GyEUGuCASGkVqs3bNjQvn175lI4WVIulysUiqCgoKeeeqqoqMhsNgMMgjJgNpuJ7zdzPsIJDg7+5ZdfzGZza4KBlOXAgQOPPvqo8Fchjxw5whwGbhcxhPYziv6k9TwDQuj8+fOc92ozZswgDnNbGQyE7RBCBQUFkyZNEvjORVYwmEymO3fu6HQ6Cn+TdLLkYFi8eDE3GBQKxY8//tiKYSBCRE1NzYoVK3r37i3AqpowBCsYmpub582bl5mZeeHCBZ4eM+KPJ2nBoNfr4+LiuMHQv39/8nPirTIykPHBaDR+++23EyZM4O9CtaUJWMFQV1cXFhbm7+//xBNPfPTRRw0NDfz5LvaWpQVDQUFBUFCQpSWYb2dkZJCnAls3DAgho9FYVla2cuXKiIgI5hJxK8kBBqKjByv+JUuW0F/Lw+7QzjQoLRgyMzO5fbTT29u7sLCQFKIVw0DOESGk0WhOnTo1dOhQXi9Uc4ZBJpP5+PhkZmaSOyly8NLckAoMxN5u/Pjx3OyamJhInEciVHYHGIiZIoS0Wu3atWtVKhVPJ5qcgUEmk3l6el66dEma3m81KgnBcPv27b59+3IL5WlpaZbPc7kVDMRxSHFx8YwZM8LDw7Ej4SQMMpls0qRJxL1PVs4ntZ8SgmHfvn3cnmsLDAz8+uuvjUYjKa77wEBOmfigUU5OzsSJE9u3b4/xXJPzMHTt2rW0tFT6B0sSgmHZsmXczqAPHDjw0qVLllq7JwwIIZPJVF5evmXLlrFjx/r4+HALs1a1nIdBpVLt2rXL0kAkw5LakAoMarV66tSp3BYMr7/+uuWCofVdgWbrMUaj8fr1659//nlSUhK3ExKWPDgPQ1BQ0Nq1awEGpnYsKSlJTEy0tAHDbaVSuXbtWstjJICBWEUYjcbKysr9+/c//fTTnG98lMlkzsMQGBj4wQcfAAyOYSAsd/jw4V69ejEEwLJYz549Dx48aCW0Gx4m2RWa0Fav13/33XfDhw/n9iis8zAEBwevX7/eykZ2ByxuoviHScSR7ieffBIcHGzp5Qy3ExMTCwsLrYQGGGy9CiF09uzZ119/vUePHkFBQcyPSJ2HISws7NixY1Y2sh2h6CmSgEGj0SxevJjDCRC5XD59+vSGhgYroQEGW8cij52uXbv24N6hMWPGREdH+/r6OtzpOA9D//79mT9sbTtywVIkAUNFRcWUKVMcWsW2QEBAwPLly23FAhhsNbFKqa6u/vbbb5ctW/bcc89FRUXRvIjEeRjWrFlj1bs0f0oChoKCgkGDBtn6usOULl267N6921ZZgMFWE6sUIlCYTKaysrKjR49mZWVNmTKlV69ettfsnIThySefvHfvnlXv0vwpCRhyc3O7dOni0PVtC8TGxtq91A8wMPc2Ys2m1Wrv3LlTWFi4f//+1NTUQYMGkdd8nIFhwIABLnG5jZBLEjDs3r2b24mOxMRErVZra3iAwVYTqhQiRJD/m0wmnU7X3NxcVVV18ODBhQsXsnrsk7iFm9htDR48uLi4mGiZqndJpYsPg1qt5vZiGC8vr+TkZKulMyEuwOCkk5FskK7M8Bnourq6yF//li1bJsBnF52cplV18WEgXjBsewjkMMXf3z8rKwtgsLIoTz8ZwqDT6fbu3Xvr1i2ehsFrs+LDUFlZOXToUIeub1ugbdu2VGevITJgdxqGMJAhBfsABGhQfBhu3LjB7b2o7du3J75MYysTwGCriZMpDGFwshdxq4sMA/HGB253zsTGxlrdkkRK6dIwxMfHE2tWcjpS2AAYeLcCQmj//v22h0BMUl588UWq8bk0DH369Dl9+jTV1MRKBxh4Vx4hlJmZycT1bcssXbqUanyuDsOpU6eopiZWOsDAu/IPPlc1b948W0dnkvLll19SjQ9goFKGczrAwFk6phUf3Eo5cuRIJq5vW+by5ctU3QAMVMpwTgcYOEvHtCJCiNubVX19fS3fAGDVH8BgJYjzPwEG5zV00AJCKCAgwHav7zAlKirK7uU2oj+AwYHu7LMBBvaasazx4OMDDv3eboGRI0cCDCzFdqo4wOCUfEwqnzx50q6vO0ycP38+wMBEYVxlAAZcSlK2s2PHDod+b7fAmjVrAAZKWXnIABh4ELVlkxkZGXZ93WHi3r17AYaWWvL7C2DgV1+z2TxnzhyHfm+3wM8//www8G4eiw4ABgsx+NkcNWqUXV+nT5TL5fT3ysPZJOzmAhiwS2rdYHx8PL3f280NCQlpbGy0bsviN8BgIQaeTYABj440rXTr1s2uu9MnPvLIIzSf73b1N+r16dMH7k2i8Rn+skS7hZt4CoTe6alyExIS1Go1jSgQGWjE4ZYFkYGbboxqPbhF7/79+1TuTp8+ZswYjUZD0w3AQCMOtyyAgZtujGohhEpLS+mdnir31VdftftSDLJjgIGUAtcGwIBLSTvtEK/+pHJ3+vS3336b/kvDAIMdxZ1LAhic04+2NkLoyJEj9E5PlZuenq7X62maBxhoxOGWBTBw041RLYTQl19+SeXu9OlZWVkGg4GmG4CBRhxuWQADN90Y1UIIbd26ld7pqXI3bdpE9SoAom+AgZEN2BQCGNioxbIsQmjNmjVU7k6fnpOTYzKZaDoEGGjE4ZYFMHDTjVEthNCqVavonZ4q99ChQwADI5XxFQIY8Glp09KDlz8vXryYyt3p03/88Ueau/TgCrSN2BgSAAYMItI0sWDBAnqnp8p1+FohOEyikZ1bFsDATTemtbjB4Ofnd/bsWYgMTFXGVA5gwCSkvWYQQtOmTaPa99Okq1Sq8+fPAwz2ROUxDWDgUVyz2fzSSy/ROD1VlkqlunDhAv3I4DCJXh8OuQADB9FYVAEY7AIPt3Cz8CGsRUW7hRsig10SZDIZwIDVw1k05nowdOrU6eLFi7BmYGFkHEXhMAmHitRtcDtMioqKKiwsFAUGLy+v9i3/uH2XkSomEOkQGahdht8c14sMMTExly9fFgWGgQMHlrf8i4mJofdsDrkAA78uT926aDAghLhFBhFhSEhIsFKyT58+HNydvgrAYCWyYD/FhOGvf/0rvVvYzX300UdLSkpEiQwAg12LEIkvv/wy/StLBPNpzh2JCcO2bdtoxKXKevHFF6m+a0iqwNN1BoCByigymQxgIN2P9QZCqKKiIiQkhEZf2ywfH58PP/xQo9FAZGCtuHMV4GySc/rR1iZeFZOammrr8TQpjz/+OHEvBsBAqy7+TIABv6ZWLdbW1g4cOJDG+y2zHnrooaysLPr3YhDtw2GSlc7O/wQYnNfQQQsIoYsXL0ZHR1s6vd3tB9+tevvtt9VqNX1MIPoDGBzozj4bYGCvGcsaCCGj0fjjjz8OGTLE399fLpfbkqBQKNq3b//OO+8QSwWAgaXGeIoDDHh0ZNJKWVlZenr64MGDu3fv3q5dOz8/v8DAwI4dO8bFxU2ePPnYsWNMGiHLQGQgpcC1ATDgUtJxOw+eAjWZTDdv3vzqq6+ys7OXL1++atWqbdu25efnOzx3ZNs6wGCriZMpAIOTAopWHWDALj3AgF1SgRoEGLALDTBgl1SgBgEG7EIDDNglFahBgAG70AADdkkFahBgwC40wIBdUoEaBBiwCw0wYJdUoAYBBuxCAwzYJRWoQYABu9AAA3ZJBWoQYMAuNMCAXVKBGgQYsAsNMGCXVKAGAQbsQgMM2CUVqEGAAbvQAAN2SQVqEGDALjTAgF1SgRoEGLALDTBgl1SgBgEG7EIDDNglFahBgAG70AADdkkFahBgwC40wIBdUoEaBBiwCw0wYJdUoAYBBixCE++2qqurO3HixNSpU23f1WCZ8vjjj+fk5FRUVBC1sAxA4EZEe70kr/MEGLDIq1arDx8+PHPmzLi4OG9vb0vXt9329PTs0aPHhAkTtmzZUlNTg2UAAjcCMNialTLFtd616sweGiFUXV2dkZHRq1cvLy8vSkVsMuRyeYcOHWbMmFFUVMTkpT523Z0YOefqdttkkggw2NiTOsG1YDCZTJWVlTs5/X322Wevvfaav78/tRh0OUql8sknn/zoo484db7z559/1ul0AAMTgB2XgcMks9mMEPrmm2/ofFaqeQsXLqyvr3dsZtwlIDKw8AjXigwAA1tYAAaAgYUCwhSFyMAWY7rycJgEh0l0/kGRB5GBxc4ODpNYiOVEUYgMFLRySobIAJGBg+NAZGCxB4PIwEIsJ4pCZOBAMmUViAwQGSidgzoDIgOLPRhEBhZiOVEUIgM1sOxzIDJAZGDvNWaIDCz2YBAZWIjlRFGIDBxIpqwCkQEiA6VzUGdAZGCxB4PIwEIsJ4pCZKAGln0ORAaIDOy9BtYMbHZgEBnYqMW9LEQGDiRTVoHIAJGB0jmoM2DNwGIHBpGBhVhOFIXIQA0s+xyIDBAZ2HsNrBnY7MAgMrBRi3tZiAwcSKasApEBIgOlc1BnwJqBxQ4MIgMLsZwoCpGBGlj2ORAZIDKw9xpYM7DZgUFkYKMW97IQGTiQTFkFIgNEBkrnoM6ANQOLHRhEBhZiOVEUIgM1sOxzIDJAZGDvNbBmYLMDg8jARi3uZSEycCCZsgpEBogMlM5BnQFrBhY7MIgMLMRyoihEBmpg2edAZIDIwN5rYM3AZgcGkYGNWkB4OSQAAAiTSURBVNzLQmTgQDJlFYgMEBkonYM6A9YMLHZgEBlYiOVEUYgM1MCyz4HIAJGBvdfAmoHNDgwiAxu1uJeFyMCBZMoqEBkgMlA6B3UGrBlY7MAgMrAQy4miEBmogWWfA5EBIgN7r4E1A5sdGEQGNmpxLwuRgQPJlFUgMkBkoHQO6gxYM7DYgUFkYCGWE0UhMlADyz4HIgNEBvZeA2sGNjswiAxs1OJeFiIDB5Ipq0BkgMhA6RzUGbBmYLEDg8jAQiwnikJkoAaWfQ5EBrPZbDKZjh496oRPilY1JSWlvr4eIcTe8k7VgMjAwuQuFxkuXbrk6enJYobSKLpq1SqNRgMwOEU2WRkiAyFFcXGxSqWShoczHYWHh8fGjRsNBgPAQPqzUxsAAyHfjRs3+vTpw9QNpVEuODh4z5496Nc/p5yAfWU4TGLhAq51mGQ2m6uqqkaPHs1ihhIoGh0dnZuby96TMdQAGFjY3+VgqKure+utt1jMUAJFhwwZUlBQgMG12TcBMLCwv8vBYDQat2zZwmKGEig6Y8aMmpoa9p6MoQbAwML+LgcDQig3N7dr164sJilqUV9f34yMDOGXzgRJAAML47siDKWlpaNGjWIxSVGLRkVFHTp0CGDAEObIJuBsEiEFQkitVi9ZskSpVIrq5Iw6l8vlzzzzTGVlJcBAejKGDYCBhAEhdPDgwcjISEb+KGqhgICA9PR0k8kEMGBggGwCYCClMJvNNTU148aNk8vlorq64867du1aWFhoOXKBt2HN4NhIZAmXWzMQzoQQ2rRpU2hoKDkRaW7MnDnTZDIJDIBldwADC8dwURjMZnN9ff2wYcOkHBzatGlTUlIi1gESgQTA4BYwmM3mAwcOtGvXjsVsBSzq6emZnp5uuZMWZRtgYGFz140MZrNZr9fPnTuXxWwFLDpkyJC6ujpRALDsFGBgYXOXhgEhVF5ePmjQIBYTFqRo165djx49Ku4BEoFE64Th9OnT8fHx2E2ZmJhouSMxm839+vXD3ku/fv34uDmHuA/05MmT3bt3xz5mzg0GBgZmZmaq1WqAwcq1sP0sLi5+4oknOFuIquKMGTOshjh27FiqwpzTH3vssfLycquOcP3U6XSfffZZcHAw5+FhrKhQKObNm3fv3j0pkGA2t9K3Y6jV6nHjxmE0G9HUxx9/bOWU7777Lt5e5HL5uHHjeHWO5ubmlStXBgYG4h0529YUCsULL7zAH/ZWlmLys3UeJiGEli5dGhAQwNZCNOV9fHxu3rxppem5c+cUCgVNLbZZ/v7+fN+phhCqqalJTU0V8eSSl5fXyJEji4qKeMXeylgOf7ZaGPLy8vDerfnUU0/ZWs5gMAwYMICtx9OUDw8Pv3Dhgm1HDg3JtsD9+/fT09PDwsJoBsNTlre39+TJk69du8Z2zHyXb7UwqNXqiRMn4rrM5OPjs2vXLlsfRQht2bIFY3B4+eWXDQYD31Yn3qrU0NDwySef9OjRgyent9usSqVauHBhZWWlAHNk20XrhIFQ4eTJk7hWis8991xVVZVdGKqqqoYPH27X8GwTVSoVH+eRaHxCr9fn5uYmJSXh2mvQT7lv376bNm2SwiUFu5q0Zhj0ev3KlSvpzcMkt0ePHt98843RaLQLg9Fo/Prrrzt06MCkKZoyHh4eGzZsMBqNdu3EXyJC6Pr164sXL27bti3N8JzMUiqVY8eO/emnn7Rara2M/M2OVcutGQaEkNFofP75550xZFBQUGZmJo0JiWcG3n//fV9fX2c6mjVrlk6nE95REEImk8lgMBw5cqRfv358hIiQkJDs7Ozm5mZR3nnBnIfWDAOhwp07d5577jkfHx8OntquXbvU1NT6+nqHgtbV1XHeufr6+r700kt2D8Mc9ou3wP3791euXNmzZ08/Pz8OcllVUSqVYWFhr7zySllZGd5x8tRa64fBZDLduHFj9uzZ7du3Z7Xbi4yMzMjIaGpqYrK3RgjV1tYuW7aM1XpULpeHhYXNnz//5s2bUthrEmO4fv36okWLBg4cqFKpWClGwuDv79+nT5/XXnstLy9PCvNiCE/rh4E4c3L37t3169cPHTqUSYh46KGH/vKXv+zbt0+v1zPUkSim1Wr37Nkzbty4kJAQ0jOoNnx9fYcPH75hwwbpXIIlJ2s0GouLi7Ozs1944YXIyEgPDw+qWVilh4aGPvPMM2lpaSdPnlSr1WSDLrHhFjAQPOh0uoKCgvXr148fP75z5862+zxvb+/evXvPnDnz888/J57EZRITLM1M7AVv3769ffv2V155JSYmxvbhYw8Pj4iIiOeff37Dhg1FRUWivEfRcsx2t4mJGI3GioqKI0eOvPvuu2PGjOncubOV65M/27ZtO3jw4IULF+7Zs6e4uJhYYrFVz+5IhEx0FxhITfV6/e3bt/Pz8/fu3btq1apFixal/Pq3bt26w4cPFxQU3Lt3z/lTOkaj8e7duxcvXjx06FB2dnZqampKSsqiRYvef//9vXv35ufnl5eXC3M9gZw45w3iDMHNmzfPnDmzdevWWbNmDRgwwN/f39PTs1evXpMnT16zZs33339/9epVUV6dzXlethXdDgZin0ecQtHpdFqtVvPrn16vJx5Fx3KMa9mLXq8nutBqtTqdDmMvtubkI4WcC0LIYDCo1er6+vrq6ury8vIHb+xramrS6/WWZfgYgzBtuh0Mwsja6nvBssuQmkoAg9QsAuMRTQGAQTTpoWOpKQAwSM0iMB7RFAAYRJMeOpaaAgCD1CwC4xFNAYBBNOmhY6kpADBIzSIwHtEUABhEkx46lpoCAIPULALjEU0BgEE06aFjqSkAMEjNIjAe0RQAGESTHjqWmgIAg9QsAuMRTQGAQTTpoWOpKQAwSM0iMB7RFAAYRJMeOpaaAgCD1CwC4xFNAZlZJiP+iTYE6BgUkIYC/w8yeYmn8YI7zAAAAABJRU5ErkJggg==;" vertex="1" parent="1">
          <mxGeometry x="30" y="329.15" width="60" height="70.85" as="geometry" />
        </mxCell>
        <mxCell id="YEeJorZN1dExoxOqFr3U-82" value="" style="shape=image;verticalLabelPosition=bottom;labelBackgroundColor=default;verticalAlign=top;aspect=fixed;imageAspect=0;image=data:image/png,iVBORw0KGgoAAAANSUhEUgAAAQQAAAEzCAIAAABYFepIAAAgAElEQVR4Ae2dCVxU5frHZ2AYVgFlQlwQNxYzhSvmvdZNFC0LTc3tlpamtuB29bbcq6D/vIheLM1QSCu9uaVpV8PcKpcwyXJBTQQFUVFZNAFZZ593/t5OnTvMzDlzzpn3LMM8fD76OfPu7+95vuc571llZvgDBUCBXxWQgQ6gAChAKAAwgCeAAr8pADCAK4ACAAP4ACjQUgGIDC31gF9urADA4MbGh6m3VABgaKkH/HJjBQAGNzY+TL2lAgBDSz3glxsrADC4sfFh6i0VABha6gG/3FgBgMGNjQ9Tb6kAwNBSD/jlxgoADG5sfJh6SwUAhpZ6wC83VgBgcGPjw9RbKgAwtNQDfrmxAgCDGxsfpt5SAYChpR60vxBCpl//LDdoa0CmKykAMNixFrL4MxgMdXV1FRUVV69evXTpUn5+/rFjxw4ePHj8+PH8/PzCwsJr165VVlY2NDQYjUainp0WIckVFAAY7FgJIWQ0GsvLy0+cOPHpp5+++eabSUlJMTExQUFBspZ/ISEhffv2HT16dEpKyrZt23766ad79+7ZaRGSXEEBgOE3K5HBQKfTnT9/fvXq1ZMmTYqJiVEqlS39n/KXr6/vH/7whxkzZmzcuLG0tNRkMiGEXMEHYIy/KQAw/A8Gg8Fw6dKl1NTUgQMHBgQEUHq9o4yQkJBhw4atXLny1q1b4GgupADA8F9jIYSam5vXrVsXFxfn7+/vyNsd58vl8qCgoMTExH379mk0GggRLoEEwPBfMzU0NIwZM0ahUDh2czYl5HK5n5/fggULdDqdS3iDmw/S3WHQarV5eXldu3Zl4+SsyyYmJl67ds1oNLq5t0l8+u4LA0KooaFh+/bt4eHhrL2bfYXY2NgTJ05otVqpHTIhhAwGw40bN47//nflyhUsg0QIVVZW/t7q8YKCgubmZiwt8wSV+8LQ0NCwceNGvmMCSY2Hh0f//v0PHDig1+t5siW3ZhFC169fX7BgQbvf/5KTk2/dunXb6b9bt26tW7fu91bbjRo1Ki8vT6vVchunALXcEQaEkEaj+eKLL6Kjo0lnFWDD09PzscceO378OHF5TgDrMulCr9fPnTs3KiqKVCAyMnIUpr9HH32UbDY0NHTo0KFFRUVMRiVKGXeEwWQynTp1qm/fvnK5nDSVMBsKhSIpKam4uFg6Rws6nS4+Pl6Y6ctksh9++EEUR2fSqdvBgBBqamoaNmyY8CQQDqdQKN54442GhgaJ8AAwkJy4HQxGo3Hp0qWC7QjtduTl5XXo0CGAgfRCiWy4HQznzp3DclnNrpczT+zVq1d1dbUUnAAiA2kFN4KBOEAaPXo0c5fltWRqaqoU7l8CGNwUhq+++io4OJhXF2feeFhY2OXLl0U/WAIY3BGGpqam8ePHe3p6MvdXXkt6enqmpKQADKQvir7hRodJx48ftzybzqujM2y8X79+lZWV4jqBwWBYunRp//79iTGrVKrXX399Fr4/8mJOly5dJk+efO3aNXHnS9O7W8BAPKuQnp4uhaWzJSdhYWE7d+6kMY8AWcRtKYsXLyYG1q9fP+I2W/IBDyc3pkyZQrT8zDPPlJSUiB4JaSR1Fxju3r07YcIES0eUwrZSqZw7d67oN/A1Njb+3//9nyUMNB7DNmvq1KmWMLCtLmR5d4Hhp59+srw1QAokEGMYPnx4RUWFkCa37QtgIDRxFxi++OKLDh06SIcBciRxcXE//PCDuAcPljA88sgjGo3GFhjOKRAZOEvHS0Wj0ZiZmenl5UW6oHQ2wsPDd+7cKR0YunTpolarMZphxIgRhNrEmgFjy9ibcovI0NTUlJKSIh0ALEfSpk2brKws6cDQoUMHvDAkJCQADNi55d5gTU3NnDlzLF1QUttpaWnc54ajpuVhklwub25uxtHqb23ExMQADBj1dLap8vLySZMmSQoAy8GkpqYaDAZnJ+lEfUsYZDJZZWUllkhFvHfwoYceAhicMA7uqhKHYf78+Y2NjbgnzaI9KxhwLegRQo2NjST2sGZgYRL+ikochjfffBPvkQlbJa1g2Lx5M67IUFBQADCwNQe/5e/cuTNt2jTSKlLbWLRokaQOk/7xj3/ggmHPnj2k2hAZ+PVyhq3X1tbOmzePtIqkNry8vDIyMrA4H0M1bItZRYYnn3wSy3gQQpbPUQEMtsqLkKLRaNLS0iTFADmY4ODg9evXY3E+zspawdC2bVssr/BACI0aNYqcKcDA2UA4KyKEPvroIx8fH9Iw0tno1q1bTk6OpGCQyWRnzpxx3gDV1dU9evQgpQYYnJcUQwsIoQMHDlgahrSQ6BsDBgzIz8+XGgypqanO6/7VV1+FhoaSCgMMzkuKoQWEUEFBweDBg0nDSGRDLpePHTu2trZWajDExsbW1dVxHhVCSKfTzZs3z9vbm5QaYMDgys43gRCqr69/5ZVXpPOYG+EiD56vWLJkifMTdLIFqzWDTCYLDg7etWuXMzBcuHDB6jZhgMFJM+GpTjyesn79epVKRe6opLARERHx3Xff4ZmkE63YwuDp6Tl69Oi7d+8S0rFtW6PRLFu2rE2bNpYiAwxsZeSxfFFRUWxsrKV5RN8eMmRIU1MTj3Nm1rQtDDKZLCQkJDMzU6fTcYgPeXl5tlIDDMysIUgphNCsWbOkcyO3l5fXJ598wsHVsKtlFwaZTBYVFXXw4EHmb4YlwsiNGzeefvpp2xcWAgzYDce9QYTQ6dOnw8LCRA8IxACioqIk8pJJKhhkMlnPnj23b99+586dhoaG+7R/9fX1tbW1p0+fpjpRATBw912eas6ePVsKMHh7e2/bto2nObJtlgYGmUzm7e2dlJT0t7/9bTLt36xZs1566SXbD6KSagMMbO3Ce/mysjLyDnvSTsJvjB8/XjrftqKHAZc4AAPvzs22A4TQ7t27AwMDcdmYQzvR0dFnz56VwmqBUA9gIHRwi8c+LYEhPuyZkpJiu8Lj4NYcqgQFBW3YsIHbWRrLieDaJt6bRL4qhsOMGFYhIoN0dgG2ArodDMSHbsvKyiZOnMjQihiLKRSKv//97zU1NdLxCeJ9zMuXL8c4TbtNPfvss6WlpdKZOMDwPwXOnTuXkJDg4eFh13J8JHp6ej7//PPl5eX/G4QEtohbJz788EM+pmzZ5gsvvIDrgVKeZHPHyEBIiRDKy8sbNGgQ9s8/W3oAua1UKseMGYPrQ5oYvYG4OLB7925e7+qVy+Xz5s1Tq9UQGTDaDnNTJ06cGDFiBN/rB19f32nTpl29ehXz6PE1d/z48cjISBJd7BsBAQHvvfcevvHy0pL7RgZCToRQUVHRnDlz+Du/1Llz57S0NOI+H15siKPR0tLSZ599FjsDZIM9e/Y8ePAgjpHy2Ia7w0BIW11d/e9//9v2dhrSltw2vLy8hg0blpOTI4UbkOidSK1WL168WKlUcpupw1rDhg0T/eX79AqYzWaA4b8SEYvIgoKC+fPnt23b1qFpmRQIDw/PyMi4fv26wWCQ8oEy4SLE8088HSkRd6qL/rJxgMGhAr8VINaRDx7bPXfu3MSJE51ZVSuVyrfffps4c0I0y3QQopZraGiYMGECH8uniIiIa9euSX+PAJHBjgMihK5cufLOO+/079+/Y8eOQUFB9Pe6ent7t23bNjw8PDExcfXq1b/88ov0DW9n2mbz7t27O3XqxCTusSrz1ltv2e1OaokAgx2LkFGiubn5hx9+WLt2bXJy8ogRIxISEv74xz/+4fe/gQMHDhkyZPTo0W+88cbGjRsvXrxo+c0bO+1KPqmxsXHSpEl4g0P37t1v3rwp+an/d4AAA1MzNTc337p1q7Cw8MyZM2d//bty5UplZSWWt6owHQTP5RBCZ86c6dy5M6sdP01hPz+/7du3u0qcBBhY+BcZMYg6Vj9ZNCTVosSrgtevX+/MksmSjeTkZK1WCzBI1eAwLkcKNDU1zZw509KnuW0nJCRcvnzZUW8SyofIICFjSGQoCKGKioonnniCGwNErYiIiK+//lrcd8iy1RNgYKuYW5Q3mUwnT558+OGHuS2mVSpVVlYWcTrBhfQCGFzIWMINFSGk1Wp37doVGRnJlofg4ODU1NT79++7ylKBlLX1w0Auc4kNcuZS2LAcmxTGQ46BGFhjY+PHH3/crVs35sdLfn5+b7755p07dySoNjk7qo3WD4PJZHpwbbWwsDA3N3fHjh1ZWVlrJfP3n//8p6CgQLKHE8SndzZu3Mjwq8FKpTIlJUXityRSkdBqrzOQe9yKiorly5cPHz48Pj4+JiamU6dO7dq1ayuNv3bt2nXp0iU+Pj45Ofn06dN6vV5qxxWEjM3NzTk5OQ6vTBM3aRPvjZXaRGgAsMxqnZEBIWQwGLZu3dq9e3d/f3+2R73MjwqwlFQqlREREZ9++qnJZLK0jUS2EUJ6vX7FihX0k504ceK9e/dcFANC6tYGA3HZqK6ubsGCBQEBAfT2k1Suh4fH5s2bJXtr57p16+jlevnll8X9TKPz+45WBQNBwvXr15OTk/38/OiNJ8FcT0/PrVu3SufFGZbuBTBYquEC2yaT6cqVK9OnT7f8LIAEnZ5mSJ07d/7uu+8keLABMLgAAMQQiaXe7du3x48fL7WPMNC4vm2WQqEYN25ceXm51E5NAgyuBENlZaWrk0CwERIS8sEHH0jt/jaAwQVgIPag9+/fnzBhAq57LW132AKn9OvX78SJE5I6WAIYXAMGjUYze/Zs110n2JIml8unTJkiqSfoAQYXgEGr1a5evTokJMTWpVw6RalUfvjhhxqNRiI2ABgkYgj7wyBeaZGTkyOFV8zzAV6HDh0OHz4skZU0wGDfCyWSajKZzp8/P2TIED4cUSJtxsXFFRYWSmHxADBIxO3tDAMhVFtbO23atFazaKbCLykpqaysTPT4ADDY8UKJJCGEsrKyHrydisqHWk26QqGYPn16dXW1uPEBYJCI57cYBrGPvHTpEn9vR5UaSG3atElNTSXfQ9NCDqF+AAxCKc2mH+LjGlZfn5ea+2Ifj0qlys7OFvHJB4CBjZMKVVar1aalpbX6pYItTt27d9+xY4dWqxVK6Rb9AAwt5BD9B3GAlJub27NnT1tfcYeUmJiYvXv3irJ4ABhE9/8WA0AIVVVVTZkyhb83p0ufqN69e+fk5LTQRZAfAIMgMjPuxGg0bt68meHzuNJ3a84j7Nat286dOwWODwADYz8VpGBJScnIkSMl/gwnZxdnVZHgQRDVf+sEYBBSbbq+iDsvNmzY4NLPKrByd4eFO3To8OmnnxqNRpPJJECUABjoHFTIPIRQaWnpn/70J4cu4lYFOnfu/PHHH9fX1wtwfRpgENLh6foymUzZ2dlwgGSLemho6IoVKwT4PArAQOegguUhhO7evfvwww/bugKkyGSygICAOXPmEN+J4u94CWAQzOHpOkIIOXxpj5tToVAokpKScnNzAQY6T3KU5wKviqmsrAwNDXVzd3c4fQ8Pj759+27evJmnh6chMjhCSZD8f/7znw5dAQoQCoSEhKSlpdXW1mK3DMCAXVJ2DRJfzXDbmy+4ES6XyydMmHD58mW8L28FGNj5LvbSJpPpgw8+aNOmDTe3cOdakZGRO3furKqqwnXWFWDA7t7sGqyqqho+fDicUeVGtbe396uvvvr99983Nzez091eaYDBniqCpBH7s88//zw8PJybK0AtmUymUChiY2P/9a9/lZWVOXmhGmAQxPHtdYIQun///syZM93wuQXsGAcHBw8dOnTnzp3OfLIaYLDnp4KkIYROnjwZHx+P3TPcs0EPD4/g4OARI0acPXuWiLpsr0gADII4vr1OjEbjunXrvLy8uPmul5eX697Sp1Ao+Hufvre39+zZs0tKSohzTcyX1wCDPT8VJK28vHzixIncSPDx8UlMTHTdE7JxcXFpaWnR0dEeHh7cFHBYq2PHjikpKWfOnKmpqWEYIgAGQRzfphOTyZSXl9exY0eHRrVbIDY2Nj09vXfv3nZzpZ84YMCAoqKiPXv29O/fnz8eZDJZRETE3LlzDxw4UFZWZjAY6KMEwGDjp4IkaDSa9957j5vXKpXK5OTkffv2uTQMJSUlRqPx6NGjTz31FDcdmNcKDQ0dP3786tWrT5061dTURGVhgIFKGX7Ta2tr//znPzM3p2XJTp067d+//9ixYy4Nw9WrV4n9dGFh4fTp0wW40hIYGBgfHz916tRNmzaRn0qxPIICGPh1eqrW8/PzOT/yn5CQ0NjY2ApgIMWpqqpasmSJMO8OVCgUKpUqOjr6xRdf3LFjR0VFBTkMgIGUQtCNhQsXWu7smW8rFIrs7GyEUGuCASGkVqs3bNjQvn175lI4WVIulysUiqCgoKeeeqqoqMhsNgMMgjJgNpuJ7zdzPsIJDg7+5ZdfzGZza4KBlOXAgQOPPvqo8Fchjxw5whwGbhcxhPYziv6k9TwDQuj8+fOc92ozZswgDnNbGQyE7RBCBQUFkyZNEvjORVYwmEymO3fu6HQ6Cn+TdLLkYFi8eDE3GBQKxY8//tiKYSBCRE1NzYoVK3r37i3AqpowBCsYmpub582bl5mZeeHCBZ4eM+KPJ2nBoNfr4+LiuMHQv39/8nPirTIykPHBaDR+++23EyZM4O9CtaUJWMFQV1cXFhbm7+//xBNPfPTRRw0NDfz5LvaWpQVDQUFBUFCQpSWYb2dkZJCnAls3DAgho9FYVla2cuXKiIgI5hJxK8kBBqKjByv+JUuW0F/Lw+7QzjQoLRgyMzO5fbTT29u7sLCQFKIVw0DOESGk0WhOnTo1dOhQXi9Uc4ZBJpP5+PhkZmaSOyly8NLckAoMxN5u/Pjx3OyamJhInEciVHYHGIiZIoS0Wu3atWtVKhVPJ5qcgUEmk3l6el66dEma3m81KgnBcPv27b59+3IL5WlpaZbPc7kVDMRxSHFx8YwZM8LDw7Ej4SQMMpls0qRJxL1PVs4ntZ8SgmHfvn3cnmsLDAz8+uuvjUYjKa77wEBOmfigUU5OzsSJE9u3b4/xXJPzMHTt2rW0tFT6B0sSgmHZsmXczqAPHDjw0qVLllq7JwwIIZPJVF5evmXLlrFjx/r4+HALs1a1nIdBpVLt2rXL0kAkw5LakAoMarV66tSp3BYMr7/+uuWCofVdgWbrMUaj8fr1659//nlSUhK3ExKWPDgPQ1BQ0Nq1awEGpnYsKSlJTEy0tAHDbaVSuXbtWstjJICBWEUYjcbKysr9+/c//fTTnG98lMlkzsMQGBj4wQcfAAyOYSAsd/jw4V69ejEEwLJYz549Dx48aCW0Gx4m2RWa0Fav13/33XfDhw/n9iis8zAEBwevX7/eykZ2ByxuoviHScSR7ieffBIcHGzp5Qy3ExMTCwsLrYQGGGy9CiF09uzZ119/vUePHkFBQcyPSJ2HISws7NixY1Y2sh2h6CmSgEGj0SxevJjDCRC5XD59+vSGhgYroQEGW8cij52uXbv24N6hMWPGREdH+/r6OtzpOA9D//79mT9sbTtywVIkAUNFRcWUKVMcWsW2QEBAwPLly23FAhhsNbFKqa6u/vbbb5ctW/bcc89FRUXRvIjEeRjWrFlj1bs0f0oChoKCgkGDBtn6usOULl267N6921ZZgMFWE6sUIlCYTKaysrKjR49mZWVNmTKlV69ettfsnIThySefvHfvnlXv0vwpCRhyc3O7dOni0PVtC8TGxtq91A8wMPc2Ys2m1Wrv3LlTWFi4f//+1NTUQYMGkdd8nIFhwIABLnG5jZBLEjDs3r2b24mOxMRErVZra3iAwVYTqhQiRJD/m0wmnU7X3NxcVVV18ODBhQsXsnrsk7iFm9htDR48uLi4mGiZqndJpYsPg1qt5vZiGC8vr+TkZKulMyEuwOCkk5FskK7M8Bnourq6yF//li1bJsBnF52cplV18WEgXjBsewjkMMXf3z8rKwtgsLIoTz8ZwqDT6fbu3Xvr1i2ehsFrs+LDUFlZOXToUIeub1ugbdu2VGevITJgdxqGMJAhBfsABGhQfBhu3LjB7b2o7du3J75MYysTwGCriZMpDGFwshdxq4sMA/HGB253zsTGxlrdkkRK6dIwxMfHE2tWcjpS2AAYeLcCQmj//v22h0BMUl588UWq8bk0DH369Dl9+jTV1MRKBxh4Vx4hlJmZycT1bcssXbqUanyuDsOpU6eopiZWOsDAu/IPPlc1b948W0dnkvLll19SjQ9goFKGczrAwFk6phUf3Eo5cuRIJq5vW+by5ctU3QAMVMpwTgcYOEvHtCJCiNubVX19fS3fAGDVH8BgJYjzPwEG5zV00AJCKCAgwHav7zAlKirK7uU2oj+AwYHu7LMBBvaasazx4OMDDv3eboGRI0cCDCzFdqo4wOCUfEwqnzx50q6vO0ycP38+wMBEYVxlAAZcSlK2s2PHDod+b7fAmjVrAAZKWXnIABh4ELVlkxkZGXZ93WHi3r17AYaWWvL7C2DgV1+z2TxnzhyHfm+3wM8//www8G4eiw4ABgsx+NkcNWqUXV+nT5TL5fT3ysPZJOzmAhiwS2rdYHx8PL3f280NCQlpbGy0bsviN8BgIQaeTYABj440rXTr1s2uu9MnPvLIIzSf73b1N+r16dMH7k2i8Rn+skS7hZt4CoTe6alyExIS1Go1jSgQGWjE4ZYFkYGbboxqPbhF7/79+1TuTp8+ZswYjUZD0w3AQCMOtyyAgZtujGohhEpLS+mdnir31VdftftSDLJjgIGUAtcGwIBLSTvtEK/+pHJ3+vS3336b/kvDAIMdxZ1LAhic04+2NkLoyJEj9E5PlZuenq7X62maBxhoxOGWBTBw041RLYTQl19+SeXu9OlZWVkGg4GmG4CBRhxuWQADN90Y1UIIbd26ld7pqXI3bdpE9SoAom+AgZEN2BQCGNioxbIsQmjNmjVU7k6fnpOTYzKZaDoEGGjE4ZYFMHDTjVEthNCqVavonZ4q99ChQwADI5XxFQIY8Glp09KDlz8vXryYyt3p03/88Ueau/TgCrSN2BgSAAYMItI0sWDBAnqnp8p1+FohOEyikZ1bFsDATTemtbjB4Ofnd/bsWYgMTFXGVA5gwCSkvWYQQtOmTaPa99Okq1Sq8+fPAwz2ROUxDWDgUVyz2fzSSy/ROD1VlkqlunDhAv3I4DCJXh8OuQADB9FYVAEY7AIPt3Cz8CGsRUW7hRsig10SZDIZwIDVw1k05nowdOrU6eLFi7BmYGFkHEXhMAmHitRtcDtMioqKKiwsFAUGLy+v9i3/uH2XkSomEOkQGahdht8c14sMMTExly9fFgWGgQMHlrf8i4mJofdsDrkAA78uT926aDAghLhFBhFhSEhIsFKyT58+HNydvgrAYCWyYD/FhOGvf/0rvVvYzX300UdLSkpEiQwAg12LEIkvv/wy/StLBPNpzh2JCcO2bdtoxKXKevHFF6m+a0iqwNN1BoCByigymQxgIN2P9QZCqKKiIiQkhEZf2ywfH58PP/xQo9FAZGCtuHMV4GySc/rR1iZeFZOammrr8TQpjz/+OHEvBsBAqy7+TIABv6ZWLdbW1g4cOJDG+y2zHnrooaysLPr3YhDtw2GSlc7O/wQYnNfQQQsIoYsXL0ZHR1s6vd3tB9+tevvtt9VqNX1MIPoDGBzozj4bYGCvGcsaCCGj0fjjjz8OGTLE399fLpfbkqBQKNq3b//OO+8QSwWAgaXGeIoDDHh0ZNJKWVlZenr64MGDu3fv3q5dOz8/v8DAwI4dO8bFxU2ePPnYsWNMGiHLQGQgpcC1ATDgUtJxOw+eAjWZTDdv3vzqq6+ys7OXL1++atWqbdu25efnOzx3ZNs6wGCriZMpAIOTAopWHWDALj3AgF1SgRoEGLALDTBgl1SgBgEG7EIDDNglFahBgAG70AADdkkFahBgwC40wIBdUoEaBBiwCw0wYJdUoAYBBuxCAwzYJRWoQYABu9AAA3ZJBWoQYMAuNMCAXVKBGgQYsAsNMGCXVKAGAQbsQgMM2CUVqEGAAbvQAAN2SQVqEGDALjTAgF1SgRoEGLALDTBgl1SgBgEG7EIDDNglFahBgAG70AADdkkFahBgwC40wIBdUoEaBBiwCw0wYJdUoAYBBixCE++2qqurO3HixNSpU23f1WCZ8vjjj+fk5FRUVBC1sAxA4EZEe70kr/MEGLDIq1arDx8+PHPmzLi4OG9vb0vXt9329PTs0aPHhAkTtmzZUlNTg2UAAjcCMNialTLFtd616sweGiFUXV2dkZHRq1cvLy8vSkVsMuRyeYcOHWbMmFFUVMTkpT523Z0YOefqdttkkggw2NiTOsG1YDCZTJWVlTs5/X322Wevvfaav78/tRh0OUql8sknn/zoo484db7z559/1ul0AAMTgB2XgcMks9mMEPrmm2/ofFaqeQsXLqyvr3dsZtwlIDKw8AjXigwAA1tYAAaAgYUCwhSFyMAWY7rycJgEh0l0/kGRB5GBxc4ODpNYiOVEUYgMFLRySobIAJGBg+NAZGCxB4PIwEIsJ4pCZOBAMmUViAwQGSidgzoDIgOLPRhEBhZiOVEUIgM1sOxzIDJAZGDvNWaIDCz2YBAZWIjlRFGIDBxIpqwCkQEiA6VzUGdAZGCxB4PIwEIsJ4pCZKAGln0ORAaIDOy9BtYMbHZgEBnYqMW9LEQGDiRTVoHIAJGB0jmoM2DNwGIHBpGBhVhOFIXIQA0s+xyIDBAZ2HsNrBnY7MAgMrBRi3tZiAwcSKasApEBIgOlc1BnwJqBxQ4MIgMLsZwoCpGBGlj2ORAZIDKw9xpYM7DZgUFkYKMW97IQGTiQTFkFIgNEBkrnoM6ANQOLHRhEBhZiOVEUIgM1sOxzIDJAZGDvNbBmYLMDg8jARi3uZSEycCCZsgpEBogMlM5BnQFrBhY7MIgMLMRyoihEBmpg2edAZIDIwN5rYM3AZgcGkYGNWkB4OSQAAAiTSURBVNzLQmTgQDJlFYgMEBkonYM6A9YMLHZgEBlYiOVEUYgM1MCyz4HIAJGBvdfAmoHNDgwiAxu1uJeFyMCBZMoqEBkgMlA6B3UGrBlY7MAgMrAQy4miEBmogWWfA5EBIgN7r4E1A5sdGEQGNmpxLwuRgQPJlFUgMkBkoHQO6gxYM7DYgUFkYCGWE0UhMlADyz4HIgNEBvZeA2sGNjswiAxs1OJeFiIDB5Ipq0BkgMhA6RzUGbBmYLEDg8jAQiwnikJkoAaWfQ5EBrPZbDKZjh496oRPilY1JSWlvr4eIcTe8k7VgMjAwuQuFxkuXbrk6enJYobSKLpq1SqNRgMwOEU2WRkiAyFFcXGxSqWShoczHYWHh8fGjRsNBgPAQPqzUxsAAyHfjRs3+vTpw9QNpVEuODh4z5496Nc/p5yAfWU4TGLhAq51mGQ2m6uqqkaPHs1ihhIoGh0dnZuby96TMdQAGFjY3+VgqKure+utt1jMUAJFhwwZUlBQgMG12TcBMLCwv8vBYDQat2zZwmKGEig6Y8aMmpoa9p6MoQbAwML+LgcDQig3N7dr164sJilqUV9f34yMDOGXzgRJAAML47siDKWlpaNGjWIxSVGLRkVFHTp0CGDAEObIJuBsEiEFQkitVi9ZskSpVIrq5Iw6l8vlzzzzTGVlJcBAejKGDYCBhAEhdPDgwcjISEb+KGqhgICA9PR0k8kEMGBggGwCYCClMJvNNTU148aNk8vlorq64867du1aWFhoOXKBt2HN4NhIZAmXWzMQzoQQ2rRpU2hoKDkRaW7MnDnTZDIJDIBldwADC8dwURjMZnN9ff2wYcOkHBzatGlTUlIi1gESgQTA4BYwmM3mAwcOtGvXjsVsBSzq6emZnp5uuZMWZRtgYGFz140MZrNZr9fPnTuXxWwFLDpkyJC6ujpRALDsFGBgYXOXhgEhVF5ePmjQIBYTFqRo165djx49Ku4BEoFE64Th9OnT8fHx2E2ZmJhouSMxm839+vXD3ku/fv34uDmHuA/05MmT3bt3xz5mzg0GBgZmZmaq1WqAwcq1sP0sLi5+4oknOFuIquKMGTOshjh27FiqwpzTH3vssfLycquOcP3U6XSfffZZcHAw5+FhrKhQKObNm3fv3j0pkGA2t9K3Y6jV6nHjxmE0G9HUxx9/bOWU7777Lt5e5HL5uHHjeHWO5ubmlStXBgYG4h0529YUCsULL7zAH/ZWlmLys3UeJiGEli5dGhAQwNZCNOV9fHxu3rxppem5c+cUCgVNLbZZ/v7+fN+phhCqqalJTU0V8eSSl5fXyJEji4qKeMXeylgOf7ZaGPLy8vDerfnUU0/ZWs5gMAwYMICtx9OUDw8Pv3Dhgm1HDg3JtsD9+/fT09PDwsJoBsNTlre39+TJk69du8Z2zHyXb7UwqNXqiRMn4rrM5OPjs2vXLlsfRQht2bIFY3B4+eWXDQYD31Yn3qrU0NDwySef9OjRgyent9usSqVauHBhZWWlAHNk20XrhIFQ4eTJk7hWis8991xVVZVdGKqqqoYPH27X8GwTVSoVH+eRaHxCr9fn5uYmJSXh2mvQT7lv376bNm2SwiUFu5q0Zhj0ev3KlSvpzcMkt0ePHt98843RaLQLg9Fo/Prrrzt06MCkKZoyHh4eGzZsMBqNdu3EXyJC6Pr164sXL27bti3N8JzMUiqVY8eO/emnn7Rara2M/M2OVcutGQaEkNFofP75550xZFBQUGZmJo0JiWcG3n//fV9fX2c6mjVrlk6nE95REEImk8lgMBw5cqRfv358hIiQkJDs7Ozm5mZR3nnBnIfWDAOhwp07d5577jkfHx8OntquXbvU1NT6+nqHgtbV1XHeufr6+r700kt2D8Mc9ou3wP3791euXNmzZ08/Pz8OcllVUSqVYWFhr7zySllZGd5x8tRa64fBZDLduHFj9uzZ7du3Z7Xbi4yMzMjIaGpqYrK3RgjV1tYuW7aM1XpULpeHhYXNnz//5s2bUthrEmO4fv36okWLBg4cqFKpWClGwuDv79+nT5/XXnstLy9PCvNiCE/rh4E4c3L37t3169cPHTqUSYh46KGH/vKXv+zbt0+v1zPUkSim1Wr37Nkzbty4kJAQ0jOoNnx9fYcPH75hwwbpXIIlJ2s0GouLi7Ozs1944YXIyEgPDw+qWVilh4aGPvPMM2lpaSdPnlSr1WSDLrHhFjAQPOh0uoKCgvXr148fP75z5862+zxvb+/evXvPnDnz888/J57EZRITLM1M7AVv3769ffv2V155JSYmxvbhYw8Pj4iIiOeff37Dhg1FRUWivEfRcsx2t4mJGI3GioqKI0eOvPvuu2PGjOncubOV65M/27ZtO3jw4IULF+7Zs6e4uJhYYrFVz+5IhEx0FxhITfV6/e3bt/Pz8/fu3btq1apFixal/Pq3bt26w4cPFxQU3Lt3z/lTOkaj8e7duxcvXjx06FB2dnZqampKSsqiRYvef//9vXv35ufnl5eXC3M9gZw45w3iDMHNmzfPnDmzdevWWbNmDRgwwN/f39PTs1evXpMnT16zZs33339/9epVUV6dzXlethXdDgZin0ecQtHpdFqtVvPrn16vJx5Fx3KMa9mLXq8nutBqtTqdDmMvtubkI4WcC0LIYDCo1er6+vrq6ury8vIHb+xramrS6/WWZfgYgzBtuh0Mwsja6nvBssuQmkoAg9QsAuMRTQGAQTTpoWOpKQAwSM0iMB7RFAAYRJMeOpaaAgCD1CwC4xFNAYBBNOmhY6kpADBIzSIwHtEUABhEkx46lpoCAIPULALjEU0BgEE06aFjqSkAMEjNIjAe0RQAGESTHjqWmgIAg9QsAuMRTQGAQTTpoWOpKQAwSM0iMB7RFAAYRJMeOpaaAgCD1CwC4xFNAZlZJiP+iTYE6BgUkIYC/w8yeYmn8YI7zAAAAABJRU5ErkJggg==;" vertex="1" parent="1">
          <mxGeometry x="231" y="329.15" width="60" height="70.85" as="geometry" />
        </mxCell>
        <mxCell id="YEeJorZN1dExoxOqFr3U-83" value="" style="shape=image;verticalLabelPosition=bottom;labelBackgroundColor=default;verticalAlign=top;aspect=fixed;imageAspect=0;image=data:image/png,iVBORw0KGgoAAAANSUhEUgAAAQQAAAEzCAIAAABYFepIAAAgAElEQVR4Ae2dCVxU5frHZ2AYVgFlQlwQNxYzhSvmvdZNFC0LTc3tlpamtuB29bbcq6D/vIheLM1QSCu9uaVpV8PcKpcwyXJBTQQFUVFZNAFZZ593/t5OnTvMzDlzzpn3LMM8fD76OfPu7+95vuc571llZvgDBUCBXxWQgQ6gAChAKAAwgCeAAr8pADCAK4ACAAP4ACjQUgGIDC31gF9urADA4MbGh6m3VABgaKkH/HJjBQAGNzY+TL2lAgBDSz3glxsrADC4sfFh6i0VABha6gG/3FgBgMGNjQ9Tb6kAwNBSD/jlxgoADG5sfJh6SwUAhpZ6wC83VgBgcGPjw9RbKgAwtNQDfrmxAgCDGxsfpt5SAYChpR60vxBCpl//LDdoa0CmKykAMNixFrL4MxgMdXV1FRUVV69evXTpUn5+/rFjxw4ePHj8+PH8/PzCwsJr165VVlY2NDQYjUainp0WIckVFAAY7FgJIWQ0GsvLy0+cOPHpp5+++eabSUlJMTExQUFBspZ/ISEhffv2HT16dEpKyrZt23766ad79+7ZaRGSXEEBgOE3K5HBQKfTnT9/fvXq1ZMmTYqJiVEqlS39n/KXr6/vH/7whxkzZmzcuLG0tNRkMiGEXMEHYIy/KQAw/A8Gg8Fw6dKl1NTUgQMHBgQEUHq9o4yQkJBhw4atXLny1q1b4GgupADA8F9jIYSam5vXrVsXFxfn7+/vyNsd58vl8qCgoMTExH379mk0GggRLoEEwPBfMzU0NIwZM0ahUDh2czYl5HK5n5/fggULdDqdS3iDmw/S3WHQarV5eXldu3Zl4+SsyyYmJl67ds1oNLq5t0l8+u4LA0KooaFh+/bt4eHhrL2bfYXY2NgTJ05otVqpHTIhhAwGw40bN47//nflyhUsg0QIVVZW/t7q8YKCgubmZiwt8wSV+8LQ0NCwceNGvmMCSY2Hh0f//v0PHDig1+t5siW3ZhFC169fX7BgQbvf/5KTk2/dunXb6b9bt26tW7fu91bbjRo1Ki8vT6vVchunALXcEQaEkEaj+eKLL6Kjo0lnFWDD09PzscceO378OHF5TgDrMulCr9fPnTs3KiqKVCAyMnIUpr9HH32UbDY0NHTo0KFFRUVMRiVKGXeEwWQynTp1qm/fvnK5nDSVMBsKhSIpKam4uFg6Rws6nS4+Pl6Y6ctksh9++EEUR2fSqdvBgBBqamoaNmyY8CQQDqdQKN54442GhgaJ8AAwkJy4HQxGo3Hp0qWC7QjtduTl5XXo0CGAgfRCiWy4HQznzp3DclnNrpczT+zVq1d1dbUUnAAiA2kFN4KBOEAaPXo0c5fltWRqaqoU7l8CGNwUhq+++io4OJhXF2feeFhY2OXLl0U/WAIY3BGGpqam8ePHe3p6MvdXXkt6enqmpKQADKQvir7hRodJx48ftzybzqujM2y8X79+lZWV4jqBwWBYunRp//79iTGrVKrXX399Fr4/8mJOly5dJk+efO3aNXHnS9O7W8BAPKuQnp4uhaWzJSdhYWE7d+6kMY8AWcRtKYsXLyYG1q9fP+I2W/IBDyc3pkyZQrT8zDPPlJSUiB4JaSR1Fxju3r07YcIES0eUwrZSqZw7d67oN/A1Njb+3//9nyUMNB7DNmvq1KmWMLCtLmR5d4Hhp59+srw1QAokEGMYPnx4RUWFkCa37QtgIDRxFxi++OKLDh06SIcBciRxcXE//PCDuAcPljA88sgjGo3GFhjOKRAZOEvHS0Wj0ZiZmenl5UW6oHQ2wsPDd+7cKR0YunTpolarMZphxIgRhNrEmgFjy9ibcovI0NTUlJKSIh0ALEfSpk2brKws6cDQoUMHvDAkJCQADNi55d5gTU3NnDlzLF1QUttpaWnc54ajpuVhklwub25uxtHqb23ExMQADBj1dLap8vLySZMmSQoAy8GkpqYaDAZnJ+lEfUsYZDJZZWUllkhFvHfwoYceAhicMA7uqhKHYf78+Y2NjbgnzaI9KxhwLegRQo2NjST2sGZgYRL+ikochjfffBPvkQlbJa1g2Lx5M67IUFBQADCwNQe/5e/cuTNt2jTSKlLbWLRokaQOk/7xj3/ggmHPnj2k2hAZ+PVyhq3X1tbOmzePtIqkNry8vDIyMrA4H0M1bItZRYYnn3wSy3gQQpbPUQEMtsqLkKLRaNLS0iTFADmY4ODg9evXY3E+zspawdC2bVssr/BACI0aNYqcKcDA2UA4KyKEPvroIx8fH9Iw0tno1q1bTk6OpGCQyWRnzpxx3gDV1dU9evQgpQYYnJcUQwsIoQMHDlgahrSQ6BsDBgzIz8+XGgypqanO6/7VV1+FhoaSCgMMzkuKoQWEUEFBweDBg0nDSGRDLpePHTu2trZWajDExsbW1dVxHhVCSKfTzZs3z9vbm5QaYMDgys43gRCqr69/5ZVXpPOYG+EiD56vWLJkifMTdLIFqzWDTCYLDg7etWuXMzBcuHDB6jZhgMFJM+GpTjyesn79epVKRe6opLARERHx3Xff4ZmkE63YwuDp6Tl69Oi7d+8S0rFtW6PRLFu2rE2bNpYiAwxsZeSxfFFRUWxsrKV5RN8eMmRIU1MTj3Nm1rQtDDKZLCQkJDMzU6fTcYgPeXl5tlIDDMysIUgphNCsWbOkcyO3l5fXJ598wsHVsKtlFwaZTBYVFXXw4EHmb4YlwsiNGzeefvpp2xcWAgzYDce9QYTQ6dOnw8LCRA8IxACioqIk8pJJKhhkMlnPnj23b99+586dhoaG+7R/9fX1tbW1p0+fpjpRATBw912eas6ePVsKMHh7e2/bto2nObJtlgYGmUzm7e2dlJT0t7/9bTLt36xZs1566SXbD6KSagMMbO3Ce/mysjLyDnvSTsJvjB8/XjrftqKHAZc4AAPvzs22A4TQ7t27AwMDcdmYQzvR0dFnz56VwmqBUA9gIHRwi8c+LYEhPuyZkpJiu8Lj4NYcqgQFBW3YsIHbWRrLieDaJt6bRL4qhsOMGFYhIoN0dgG2ArodDMSHbsvKyiZOnMjQihiLKRSKv//97zU1NdLxCeJ9zMuXL8c4TbtNPfvss6WlpdKZOMDwPwXOnTuXkJDg4eFh13J8JHp6ej7//PPl5eX/G4QEtohbJz788EM+pmzZ5gsvvIDrgVKeZHPHyEBIiRDKy8sbNGgQ9s8/W3oAua1UKseMGYPrQ5oYvYG4OLB7925e7+qVy+Xz5s1Tq9UQGTDaDnNTJ06cGDFiBN/rB19f32nTpl29ehXz6PE1d/z48cjISBJd7BsBAQHvvfcevvHy0pL7RgZCToRQUVHRnDlz+Du/1Llz57S0NOI+H15siKPR0tLSZ599FjsDZIM9e/Y8ePAgjpHy2Ia7w0BIW11d/e9//9v2dhrSltw2vLy8hg0blpOTI4UbkOidSK1WL168WKlUcpupw1rDhg0T/eX79AqYzWaA4b8SEYvIgoKC+fPnt23b1qFpmRQIDw/PyMi4fv26wWCQ8oEy4SLE8088HSkRd6qL/rJxgMGhAr8VINaRDx7bPXfu3MSJE51ZVSuVyrfffps4c0I0y3QQopZraGiYMGECH8uniIiIa9euSX+PAJHBjgMihK5cufLOO+/079+/Y8eOQUFB9Pe6ent7t23bNjw8PDExcfXq1b/88ov0DW9n2mbz7t27O3XqxCTusSrz1ltv2e1OaokAgx2LkFGiubn5hx9+WLt2bXJy8ogRIxISEv74xz/+4fe/gQMHDhkyZPTo0W+88cbGjRsvXrxo+c0bO+1KPqmxsXHSpEl4g0P37t1v3rwp+an/d4AAA1MzNTc337p1q7Cw8MyZM2d//bty5UplZSWWt6owHQTP5RBCZ86c6dy5M6sdP01hPz+/7du3u0qcBBhY+BcZMYg6Vj9ZNCTVosSrgtevX+/MksmSjeTkZK1WCzBI1eAwLkcKNDU1zZw509KnuW0nJCRcvnzZUW8SyofIICFjSGQoCKGKioonnniCGwNErYiIiK+//lrcd8iy1RNgYKuYW5Q3mUwnT558+OGHuS2mVSpVVlYWcTrBhfQCGFzIWMINFSGk1Wp37doVGRnJlofg4ODU1NT79++7ylKBlLX1w0Auc4kNcuZS2LAcmxTGQ46BGFhjY+PHH3/crVs35sdLfn5+b7755p07dySoNjk7qo3WD4PJZHpwbbWwsDA3N3fHjh1ZWVlrJfP3n//8p6CgQLKHE8SndzZu3Mjwq8FKpTIlJUXityRSkdBqrzOQe9yKiorly5cPHz48Pj4+JiamU6dO7dq1ayuNv3bt2nXp0iU+Pj45Ofn06dN6vV5qxxWEjM3NzTk5OQ6vTBM3aRPvjZXaRGgAsMxqnZEBIWQwGLZu3dq9e3d/f3+2R73MjwqwlFQqlREREZ9++qnJZLK0jUS2EUJ6vX7FihX0k504ceK9e/dcFANC6tYGA3HZqK6ubsGCBQEBAfT2k1Suh4fH5s2bJXtr57p16+jlevnll8X9TKPz+45WBQNBwvXr15OTk/38/OiNJ8FcT0/PrVu3SufFGZbuBTBYquEC2yaT6cqVK9OnT7f8LIAEnZ5mSJ07d/7uu+8keLABMLgAAMQQiaXe7du3x48fL7WPMNC4vm2WQqEYN25ceXm51E5NAgyuBENlZaWrk0CwERIS8sEHH0jt/jaAwQVgIPag9+/fnzBhAq57LW132AKn9OvX78SJE5I6WAIYXAMGjUYze/Zs110n2JIml8unTJkiqSfoAQYXgEGr1a5evTokJMTWpVw6RalUfvjhhxqNRiI2ABgkYgj7wyBeaZGTkyOFV8zzAV6HDh0OHz4skZU0wGDfCyWSajKZzp8/P2TIED4cUSJtxsXFFRYWSmHxADBIxO3tDAMhVFtbO23atFazaKbCLykpqaysTPT4ADDY8UKJJCGEsrKyHrydisqHWk26QqGYPn16dXW1uPEBYJCI57cYBrGPvHTpEn9vR5UaSG3atElNTSXfQ9NCDqF+AAxCKc2mH+LjGlZfn5ea+2Ifj0qlys7OFvHJB4CBjZMKVVar1aalpbX6pYItTt27d9+xY4dWqxVK6Rb9AAwt5BD9B3GAlJub27NnT1tfcYeUmJiYvXv3irJ4ABhE9/8WA0AIVVVVTZkyhb83p0ufqN69e+fk5LTQRZAfAIMgMjPuxGg0bt68meHzuNJ3a84j7Nat286dOwWODwADYz8VpGBJScnIkSMl/gwnZxdnVZHgQRDVf+sEYBBSbbq+iDsvNmzY4NLPKrByd4eFO3To8OmnnxqNRpPJJECUABjoHFTIPIRQaWnpn/70J4cu4lYFOnfu/PHHH9fX1wtwfRpgENLh6foymUzZ2dlwgGSLemho6IoVKwT4PArAQOegguUhhO7evfvwww/bugKkyGSygICAOXPmEN+J4u94CWAQzOHpOkIIOXxpj5tToVAokpKScnNzAQY6T3KU5wKviqmsrAwNDXVzd3c4fQ8Pj759+27evJmnh6chMjhCSZD8f/7znw5dAQoQCoSEhKSlpdXW1mK3DMCAXVJ2DRJfzXDbmy+4ES6XyydMmHD58mW8L28FGNj5LvbSJpPpgw8+aNOmDTe3cOdakZGRO3furKqqwnXWFWDA7t7sGqyqqho+fDicUeVGtbe396uvvvr99983Nzez091eaYDBniqCpBH7s88//zw8PJybK0AtmUymUChiY2P/9a9/lZWVOXmhGmAQxPHtdYIQun///syZM93wuQXsGAcHBw8dOnTnzp3OfLIaYLDnp4KkIYROnjwZHx+P3TPcs0EPD4/g4OARI0acPXuWiLpsr0gADII4vr1OjEbjunXrvLy8uPmul5eX697Sp1Ao+Hufvre39+zZs0tKSohzTcyX1wCDPT8VJK28vHzixIncSPDx8UlMTHTdE7JxcXFpaWnR0dEeHh7cFHBYq2PHjikpKWfOnKmpqWEYIgAGQRzfphOTyZSXl9exY0eHRrVbIDY2Nj09vXfv3nZzpZ84YMCAoqKiPXv29O/fnz8eZDJZRETE3LlzDxw4UFZWZjAY6KMEwGDjp4IkaDSa9957j5vXKpXK5OTkffv2uTQMJSUlRqPx6NGjTz31FDcdmNcKDQ0dP3786tWrT5061dTURGVhgIFKGX7Ta2tr//znPzM3p2XJTp067d+//9ixYy4Nw9WrV4n9dGFh4fTp0wW40hIYGBgfHz916tRNmzaRn0qxPIICGPh1eqrW8/PzOT/yn5CQ0NjY2ApgIMWpqqpasmSJMO8OVCgUKpUqOjr6xRdf3LFjR0VFBTkMgIGUQtCNhQsXWu7smW8rFIrs7GyEUGuCASGkVqs3bNjQvn175lI4WVIulysUiqCgoKeeeqqoqMhsNgMMgjJgNpuJ7zdzPsIJDg7+5ZdfzGZza4KBlOXAgQOPPvqo8Fchjxw5whwGbhcxhPYziv6k9TwDQuj8+fOc92ozZswgDnNbGQyE7RBCBQUFkyZNEvjORVYwmEymO3fu6HQ6Cn+TdLLkYFi8eDE3GBQKxY8//tiKYSBCRE1NzYoVK3r37i3AqpowBCsYmpub582bl5mZeeHCBZ4eM+KPJ2nBoNfr4+LiuMHQv39/8nPirTIykPHBaDR+++23EyZM4O9CtaUJWMFQV1cXFhbm7+//xBNPfPTRRw0NDfz5LvaWpQVDQUFBUFCQpSWYb2dkZJCnAls3DAgho9FYVla2cuXKiIgI5hJxK8kBBqKjByv+JUuW0F/Lw+7QzjQoLRgyMzO5fbTT29u7sLCQFKIVw0DOESGk0WhOnTo1dOhQXi9Uc4ZBJpP5+PhkZmaSOyly8NLckAoMxN5u/Pjx3OyamJhInEciVHYHGIiZIoS0Wu3atWtVKhVPJ5qcgUEmk3l6el66dEma3m81KgnBcPv27b59+3IL5WlpaZbPc7kVDMRxSHFx8YwZM8LDw7Ej4SQMMpls0qRJxL1PVs4ntZ8SgmHfvn3cnmsLDAz8+uuvjUYjKa77wEBOmfigUU5OzsSJE9u3b4/xXJPzMHTt2rW0tFT6B0sSgmHZsmXczqAPHDjw0qVLllq7JwwIIZPJVF5evmXLlrFjx/r4+HALs1a1nIdBpVLt2rXL0kAkw5LakAoMarV66tSp3BYMr7/+uuWCofVdgWbrMUaj8fr1659//nlSUhK3ExKWPDgPQ1BQ0Nq1awEGpnYsKSlJTEy0tAHDbaVSuXbtWstjJICBWEUYjcbKysr9+/c//fTTnG98lMlkzsMQGBj4wQcfAAyOYSAsd/jw4V69ejEEwLJYz549Dx48aCW0Gx4m2RWa0Fav13/33XfDhw/n9iis8zAEBwevX7/eykZ2ByxuoviHScSR7ieffBIcHGzp5Qy3ExMTCwsLrYQGGGy9CiF09uzZ119/vUePHkFBQcyPSJ2HISws7NixY1Y2sh2h6CmSgEGj0SxevJjDCRC5XD59+vSGhgYroQEGW8cij52uXbv24N6hMWPGREdH+/r6OtzpOA9D//79mT9sbTtywVIkAUNFRcWUKVMcWsW2QEBAwPLly23FAhhsNbFKqa6u/vbbb5ctW/bcc89FRUXRvIjEeRjWrFlj1bs0f0oChoKCgkGDBtn6usOULl267N6921ZZgMFWE6sUIlCYTKaysrKjR49mZWVNmTKlV69ettfsnIThySefvHfvnlXv0vwpCRhyc3O7dOni0PVtC8TGxtq91A8wMPc2Ys2m1Wrv3LlTWFi4f//+1NTUQYMGkdd8nIFhwIABLnG5jZBLEjDs3r2b24mOxMRErVZra3iAwVYTqhQiRJD/m0wmnU7X3NxcVVV18ODBhQsXsnrsk7iFm9htDR48uLi4mGiZqndJpYsPg1qt5vZiGC8vr+TkZKulMyEuwOCkk5FskK7M8Bnourq6yF//li1bJsBnF52cplV18WEgXjBsewjkMMXf3z8rKwtgsLIoTz8ZwqDT6fbu3Xvr1i2ehsFrs+LDUFlZOXToUIeub1ugbdu2VGevITJgdxqGMJAhBfsABGhQfBhu3LjB7b2o7du3J75MYysTwGCriZMpDGFwshdxq4sMA/HGB253zsTGxlrdkkRK6dIwxMfHE2tWcjpS2AAYeLcCQmj//v22h0BMUl588UWq8bk0DH369Dl9+jTV1MRKBxh4Vx4hlJmZycT1bcssXbqUanyuDsOpU6eopiZWOsDAu/IPPlc1b948W0dnkvLll19SjQ9goFKGczrAwFk6phUf3Eo5cuRIJq5vW+by5ctU3QAMVMpwTgcYOEvHtCJCiNubVX19fS3fAGDVH8BgJYjzPwEG5zV00AJCKCAgwHav7zAlKirK7uU2oj+AwYHu7LMBBvaasazx4OMDDv3eboGRI0cCDCzFdqo4wOCUfEwqnzx50q6vO0ycP38+wMBEYVxlAAZcSlK2s2PHDod+b7fAmjVrAAZKWXnIABh4ELVlkxkZGXZ93WHi3r17AYaWWvL7C2DgV1+z2TxnzhyHfm+3wM8//www8G4eiw4ABgsx+NkcNWqUXV+nT5TL5fT3ysPZJOzmAhiwS2rdYHx8PL3f280NCQlpbGy0bsviN8BgIQaeTYABj440rXTr1s2uu9MnPvLIIzSf73b1N+r16dMH7k2i8Rn+skS7hZt4CoTe6alyExIS1Go1jSgQGWjE4ZYFkYGbboxqPbhF7/79+1TuTp8+ZswYjUZD0w3AQCMOtyyAgZtujGohhEpLS+mdnir31VdftftSDLJjgIGUAtcGwIBLSTvtEK/+pHJ3+vS3336b/kvDAIMdxZ1LAhic04+2NkLoyJEj9E5PlZuenq7X62maBxhoxOGWBTBw041RLYTQl19+SeXu9OlZWVkGg4GmG4CBRhxuWQADN90Y1UIIbd26ld7pqXI3bdpE9SoAom+AgZEN2BQCGNioxbIsQmjNmjVU7k6fnpOTYzKZaDoEGGjE4ZYFMHDTjVEthNCqVavonZ4q99ChQwADI5XxFQIY8Glp09KDlz8vXryYyt3p03/88Ueau/TgCrSN2BgSAAYMItI0sWDBAnqnp8p1+FohOEyikZ1bFsDATTemtbjB4Ofnd/bsWYgMTFXGVA5gwCSkvWYQQtOmTaPa99Okq1Sq8+fPAwz2ROUxDWDgUVyz2fzSSy/ROD1VlkqlunDhAv3I4DCJXh8OuQADB9FYVAEY7AIPt3Cz8CGsRUW7hRsig10SZDIZwIDVw1k05nowdOrU6eLFi7BmYGFkHEXhMAmHitRtcDtMioqKKiwsFAUGLy+v9i3/uH2XkSomEOkQGahdht8c14sMMTExly9fFgWGgQMHlrf8i4mJofdsDrkAA78uT926aDAghLhFBhFhSEhIsFKyT58+HNydvgrAYCWyYD/FhOGvf/0rvVvYzX300UdLSkpEiQwAg12LEIkvv/wy/StLBPNpzh2JCcO2bdtoxKXKevHFF6m+a0iqwNN1BoCByigymQxgIN2P9QZCqKKiIiQkhEZf2ywfH58PP/xQo9FAZGCtuHMV4GySc/rR1iZeFZOammrr8TQpjz/+OHEvBsBAqy7+TIABv6ZWLdbW1g4cOJDG+y2zHnrooaysLPr3YhDtw2GSlc7O/wQYnNfQQQsIoYsXL0ZHR1s6vd3tB9+tevvtt9VqNX1MIPoDGBzozj4bYGCvGcsaCCGj0fjjjz8OGTLE399fLpfbkqBQKNq3b//OO+8QSwWAgaXGeIoDDHh0ZNJKWVlZenr64MGDu3fv3q5dOz8/v8DAwI4dO8bFxU2ePPnYsWNMGiHLQGQgpcC1ATDgUtJxOw+eAjWZTDdv3vzqq6+ys7OXL1++atWqbdu25efnOzx3ZNs6wGCriZMpAIOTAopWHWDALj3AgF1SgRoEGLALDTBgl1SgBgEG7EIDDNglFahBgAG70AADdkkFahBgwC40wIBdUoEaBBiwCw0wYJdUoAYBBuxCAwzYJRWoQYABu9AAA3ZJBWoQYMAuNMCAXVKBGgQYsAsNMGCXVKAGAQbsQgMM2CUVqEGAAbvQAAN2SQVqEGDALjTAgF1SgRoEGLALDTBgl1SgBgEG7EIDDNglFahBgAG70AADdkkFahBgwC40wIBdUoEaBBiwCw0wYJdUoAYBBixCE++2qqurO3HixNSpU23f1WCZ8vjjj+fk5FRUVBC1sAxA4EZEe70kr/MEGLDIq1arDx8+PHPmzLi4OG9vb0vXt9329PTs0aPHhAkTtmzZUlNTg2UAAjcCMNialTLFtd616sweGiFUXV2dkZHRq1cvLy8vSkVsMuRyeYcOHWbMmFFUVMTkpT523Z0YOefqdttkkggw2NiTOsG1YDCZTJWVlTs5/X322Wevvfaav78/tRh0OUql8sknn/zoo484db7z559/1ul0AAMTgB2XgcMks9mMEPrmm2/ofFaqeQsXLqyvr3dsZtwlIDKw8AjXigwAA1tYAAaAgYUCwhSFyMAWY7rycJgEh0l0/kGRB5GBxc4ODpNYiOVEUYgMFLRySobIAJGBg+NAZGCxB4PIwEIsJ4pCZOBAMmUViAwQGSidgzoDIgOLPRhEBhZiOVEUIgM1sOxzIDJAZGDvNWaIDCz2YBAZWIjlRFGIDBxIpqwCkQEiA6VzUGdAZGCxB4PIwEIsJ4pCZKAGln0ORAaIDOy9BtYMbHZgEBnYqMW9LEQGDiRTVoHIAJGB0jmoM2DNwGIHBpGBhVhOFIXIQA0s+xyIDBAZ2HsNrBnY7MAgMrBRi3tZiAwcSKasApEBIgOlc1BnwJqBxQ4MIgMLsZwoCpGBGlj2ORAZIDKw9xpYM7DZgUFkYKMW97IQGTiQTFkFIgNEBkrnoM6ANQOLHRhEBhZiOVEUIgM1sOxzIDJAZGDvNbBmYLMDg8jARi3uZSEycCCZsgpEBogMlM5BnQFrBhY7MIgMLMRyoihEBmpg2edAZIDIwN5rYM3AZgcGkYGNWkB4OSQAAAiTSURBVNzLQmTgQDJlFYgMEBkonYM6A9YMLHZgEBlYiOVEUYgM1MCyz4HIAJGBvdfAmoHNDgwiAxu1uJeFyMCBZMoqEBkgMlA6B3UGrBlY7MAgMrAQy4miEBmogWWfA5EBIgN7r4E1A5sdGEQGNmpxLwuRgQPJlFUgMkBkoHQO6gxYM7DYgUFkYCGWE0UhMlADyz4HIgNEBvZeA2sGNjswiAxs1OJeFiIDB5Ipq0BkgMhA6RzUGbBmYLEDg8jAQiwnikJkoAaWfQ5EBrPZbDKZjh496oRPilY1JSWlvr4eIcTe8k7VgMjAwuQuFxkuXbrk6enJYobSKLpq1SqNRgMwOEU2WRkiAyFFcXGxSqWShoczHYWHh8fGjRsNBgPAQPqzUxsAAyHfjRs3+vTpw9QNpVEuODh4z5496Nc/p5yAfWU4TGLhAq51mGQ2m6uqqkaPHs1ihhIoGh0dnZuby96TMdQAGFjY3+VgqKure+utt1jMUAJFhwwZUlBQgMG12TcBMLCwv8vBYDQat2zZwmKGEig6Y8aMmpoa9p6MoQbAwML+LgcDQig3N7dr164sJilqUV9f34yMDOGXzgRJAAML47siDKWlpaNGjWIxSVGLRkVFHTp0CGDAEObIJuBsEiEFQkitVi9ZskSpVIrq5Iw6l8vlzzzzTGVlJcBAejKGDYCBhAEhdPDgwcjISEb+KGqhgICA9PR0k8kEMGBggGwCYCClMJvNNTU148aNk8vlorq64867du1aWFhoOXKBt2HN4NhIZAmXWzMQzoQQ2rRpU2hoKDkRaW7MnDnTZDIJDIBldwADC8dwURjMZnN9ff2wYcOkHBzatGlTUlIi1gESgQTA4BYwmM3mAwcOtGvXjsVsBSzq6emZnp5uuZMWZRtgYGFz140MZrNZr9fPnTuXxWwFLDpkyJC6ujpRALDsFGBgYXOXhgEhVF5ePmjQIBYTFqRo165djx49Ku4BEoFE64Th9OnT8fHx2E2ZmJhouSMxm839+vXD3ku/fv34uDmHuA/05MmT3bt3xz5mzg0GBgZmZmaq1WqAwcq1sP0sLi5+4oknOFuIquKMGTOshjh27FiqwpzTH3vssfLycquOcP3U6XSfffZZcHAw5+FhrKhQKObNm3fv3j0pkGA2t9K3Y6jV6nHjxmE0G9HUxx9/bOWU7777Lt5e5HL5uHHjeHWO5ubmlStXBgYG4h0529YUCsULL7zAH/ZWlmLys3UeJiGEli5dGhAQwNZCNOV9fHxu3rxppem5c+cUCgVNLbZZ/v7+fN+phhCqqalJTU0V8eSSl5fXyJEji4qKeMXeylgOf7ZaGPLy8vDerfnUU0/ZWs5gMAwYMICtx9OUDw8Pv3Dhgm1HDg3JtsD9+/fT09PDwsJoBsNTlre39+TJk69du8Z2zHyXb7UwqNXqiRMn4rrM5OPjs2vXLlsfRQht2bIFY3B4+eWXDQYD31Yn3qrU0NDwySef9OjRgyent9usSqVauHBhZWWlAHNk20XrhIFQ4eTJk7hWis8991xVVZVdGKqqqoYPH27X8GwTVSoVH+eRaHxCr9fn5uYmJSXh2mvQT7lv376bNm2SwiUFu5q0Zhj0ev3KlSvpzcMkt0ePHt98843RaLQLg9Fo/Prrrzt06MCkKZoyHh4eGzZsMBqNdu3EXyJC6Pr164sXL27bti3N8JzMUiqVY8eO/emnn7Rara2M/M2OVcutGQaEkNFofP75550xZFBQUGZmJo0JiWcG3n//fV9fX2c6mjVrlk6nE95REEImk8lgMBw5cqRfv358hIiQkJDs7Ozm5mZR3nnBnIfWDAOhwp07d5577jkfHx8OntquXbvU1NT6+nqHgtbV1XHeufr6+r700kt2D8Mc9ou3wP3791euXNmzZ08/Pz8OcllVUSqVYWFhr7zySllZGd5x8tRa64fBZDLduHFj9uzZ7du3Z7Xbi4yMzMjIaGpqYrK3RgjV1tYuW7aM1XpULpeHhYXNnz//5s2bUthrEmO4fv36okWLBg4cqFKpWClGwuDv79+nT5/XXnstLy9PCvNiCE/rh4E4c3L37t3169cPHTqUSYh46KGH/vKXv+zbt0+v1zPUkSim1Wr37Nkzbty4kJAQ0jOoNnx9fYcPH75hwwbpXIIlJ2s0GouLi7Ozs1944YXIyEgPDw+qWVilh4aGPvPMM2lpaSdPnlSr1WSDLrHhFjAQPOh0uoKCgvXr148fP75z5862+zxvb+/evXvPnDnz888/J57EZRITLM1M7AVv3769ffv2V155JSYmxvbhYw8Pj4iIiOeff37Dhg1FRUWivEfRcsx2t4mJGI3GioqKI0eOvPvuu2PGjOncubOV65M/27ZtO3jw4IULF+7Zs6e4uJhYYrFVz+5IhEx0FxhITfV6/e3bt/Pz8/fu3btq1apFixal/Pq3bt26w4cPFxQU3Lt3z/lTOkaj8e7duxcvXjx06FB2dnZqampKSsqiRYvef//9vXv35ufnl5eXC3M9gZw45w3iDMHNmzfPnDmzdevWWbNmDRgwwN/f39PTs1evXpMnT16zZs33339/9epVUV6dzXlethXdDgZin0ecQtHpdFqtVvPrn16vJx5Fx3KMa9mLXq8nutBqtTqdDmMvtubkI4WcC0LIYDCo1er6+vrq6ury8vIHb+xramrS6/WWZfgYgzBtuh0Mwsja6nvBssuQmkoAg9QsAuMRTQGAQTTpoWOpKQAwSM0iMB7RFAAYRJMeOpaaAgCD1CwC4xFNAYBBNOmhY6kpADBIzSIwHtEUABhEkx46lpoCAIPULALjEU0BgEE06aFjqSkAMEjNIjAe0RQAGESTHjqWmgIAg9QsAuMRTQGAQTTpoWOpKQAwSM0iMB7RFAAYRJMeOpaaAgCD1CwC4xFNAZlZJiP+iTYE6BgUkIYC/w8yeYmn8YI7zAAAAABJRU5ErkJggg==;" vertex="1" parent="1">
          <mxGeometry x="430" y="329.15" width="60" height="70.85" as="geometry" />
        </mxCell>
        <mxCell id="YEeJorZN1dExoxOqFr3U-87" value="" style="rounded=0;whiteSpace=wrap;html=1;" vertex="1" parent="1">
          <mxGeometry x="-20" y="581" width="120" height="60" as="geometry" />
        </mxCell>
        <mxCell id="YEeJorZN1dExoxOqFr3U-89" value="&lt;div style=&quot;text-align: center;&quot;&gt;&lt;span style=&quot;background-color: initial; font-size: 25px;&quot;&gt;Output Result&lt;/span&gt;&lt;/div&gt;" style="text;whiteSpace=wrap;html=1;" vertex="1" parent="1">
          <mxGeometry x="-210" y="841" width="170" height="46" as="geometry" />
        </mxCell>
      </root>
    </mxGraphModel>
  </diagram>
</mxfile>
